<?xml version="1.0" encoding="UTF-8" standalone="no"?>
<svg
   xmlns:dc="http://purl.org/dc/elements/1.1/"
   xmlns:cc="http://creativecommons.org/ns#"
   xmlns:rdf="http://www.w3.org/1999/02/22-rdf-syntax-ns#"
   xmlns:svg="http://www.w3.org/2000/svg"
   xmlns="http://www.w3.org/2000/svg"
   viewBox="0 0 3585 4840"
   height="4840"
   width="3585"
   xml:space="preserve"
   version="1.1"
   id="svg2"><metadata
     id="metadata8"><rdf:RDF><cc:Work
         rdf:about=""><dc:format>image/svg+xml</dc:format><dc:type
           rdf:resource="http://purl.org/dc/dcmitype/StillImage" /></cc:Work></rdf:RDF></metadata><defs
     id="defs6"><clipPath
       id="clipPath16"
       clipPathUnits="userSpaceOnUse"><path
         id="path18"
         d="m 0,3872 2868,0 L 2868,0 0,0 0,3872 Z" /></clipPath></defs><g
     transform="matrix(1.25,0,0,-1.25,0,4840)"
     id="g10"><g
       id="g12"><g
         clip-path="url(#clipPath16)"
         id="g14"><g
           transform="translate(287,2988)"
           id="g20"><path
             id="path22"
             style="fill:#231f20;fill-opacity:1;fill-rule:evenodd;stroke:none"
             d="m 0,0 c 4.786,-3.146 10.276,-3.722 15,-7 3.97,-2.755 4.547,-7.466 7,-12 2.474,-4.574 9.37,-10.579 8,-16 -1.37,-5.245 -4.717,-6.889 -10,-8 -0.758,-3.677 -1.406,-5.394 1,-8 0.768,-0.689 2.229,-1.318 3,-2 3.53,1.218 4.991,3.379 6,7 12.176,-0.214 10.393,-6.441 17,-11 2.79,-1.925 6.485,-1.948 9,-4 2.319,0.227 2.82,0.197 4,1 4.805,1.588 6.904,5.847 8,11 3.09,5.223 -5.676,17.006 -9,20 -3.307,2.331 -6.285,1.656 -11,3 -11.097,3.164 -17.661,9.239 -21,20 -1.088,3.041 8.95,23.303 11,29 C 44.773,41.827 33.287,63.585 20,69 14.589,71.205 6.699,69.127 3,70 -5.474,63.56 -12.098,63.923 -18,54 -30.718,32.617 -13.808,9.079 0,0" /></g><g
           transform="translate(289,2937)"
           id="g24"><path
             id="path26"
             style="fill:#231f20;fill-opacity:1;fill-rule:evenodd;stroke:none"
             d="m 0,0 c -0.061,-7.382 2.568,-11.318 8,-13 1.029,-0.807 0.246,-0.369 2,-1 0.667,0.667 1.333,1.333 2,2 0.169,9.187 -1.501,10.342 -5,15 L 4,3 C 2.75,1.396 1.914,0.956 0,0" /></g><g
           transform="translate(2193,2345)"
           id="g28"><path
             id="path30"
             style="fill:#231f20;fill-opacity:1;fill-rule:evenodd;stroke:none"
             d="M 0,0 1,0 C 2.971,0.562 -1,1 -1,1 0.546,8.652 4.661,4.584 7,11 11.604,17.203 7.373,25.43 5,30 -1.04,41.633 -9.538,46.687 -28,46 -40.196,36.683 -44.61,34.616 -45,19 -45.476,-0.07 -14.886,-16.034 0,0" /></g><g
           transform="translate(1616,1769)"
           id="g32"><path
             id="path34"
             style="fill:#231f20;fill-opacity:1;fill-rule:evenodd;stroke:none"
             d="M 0,0 C 6.16,-0.073 6.847,0.769 10,3 10.054,9.315 9.14,10.607 7,14 L 0,14 C -3.454,8.749 -3.749,8.416 -2,1 -0.274,0.355 -1.021,0.804 0,0" /></g><g
           transform="translate(1668,1565)"
           id="g36"><path
             id="path38"
             style="fill:#231f20;fill-opacity:1;fill-rule:evenodd;stroke:none"
             d="m 0,0 c -2.183,1.51 -7.759,1.905 -11,2 -2.978,-1.848 -8.292,-0.783 -12,-2 -9.228,-3.028 -21.752,-11.132 -25,-20 -3.639,-9.934 3.263,-29.312 -2,-38 -0.021,-3.569 0.221,-6.759 1,-9 1.726,-0.645 0.979,-0.196 2,-1 10.518,0.196 9.931,6.246 16,10 4.061,2.512 8.37,2.118 13,4 7.301,2.967 16.042,10.573 20,17 2.775,4.506 1.374,9.947 3,16 0.786,2.926 3.027,9.144 2,11 -0.123,6.201 -2.2,8.64 -7,10" /></g><g
           transform="translate(2740,1306)"
           id="g40"><path
             id="path42"
             style="fill:#231f20;fill-opacity:1;fill-rule:evenodd;stroke:none"
             d="m 0,0 c -6.059,2.528 -13.354,5.283 -20,7 -17.827,4.606 -33.732,-3.767 -40,-14 -2.059,-3.362 -0.932,-8.272 -3,-12 l -11,-11 c -6.117,-9.161 -7.391,-20.395 -13,-30 -2.333,-2 -4.667,-4 -7,-6 -1.958,-2.212 -2.764,-6.126 -5,-8 -5.457,-4.572 -12.115,-5.708 -19,-9 -5.973,-2.856 -11.639,-8.4 -17,-12 -1.208,-4.633 -3.375,-9.89 0,-14 3.206,-9.777 17.798,-8.558 27,-5 9.375,3.625 28.304,6.376 36,12 0.1,0.073 6.844,8.742 7,9 l 0,3 c 1.492,-3.425 11.785,4.756 13,6 0.017,1.275 0.665,0.507 -1,2 l 0,1 c 2.131,-0.638 1.721,-2.452 4,-2 1,1 2,2 3,3 6.819,2.203 18.13,-0.699 24,3 l 2,0 c -1.475,-7.092 -9.391,-9.865 -14,-14 -12.865,-11.542 -25.962,-22.464 -40,-33 -4.568,-3.429 -7.898,-9.037 -12,-13 -6.119,-5.912 -14.982,-8.993 -21,-15 -3.503,-3.497 -6.009,-7.988 -11,-10 -12.061,-4.862 -19.158,2.081 -28,5 -12.823,4.233 -25.346,4.927 -38,10 -6.577,2.637 -13.69,9.674 -19,14 -28.181,22.957 -57.189,49.082 -72,85 -7.984,19.362 -9.262,43.49 -13,66 0.333,2 0.667,4 1,6 -1.099,5.586 -2.789,13.228 -4,18 -0.333,5.333 -0.667,10.667 -1,16 -9.503,23.323 -24.006,40.259 -40,57 -14.079,14.737 -39.709,26.233 -61,33 l -15,0 c -8.915,2.181 -20.649,-0.433 -29,-2 -18.396,-3.453 -37.307,7.946 -43,21 -6.637,15.219 -3.932,51.511 -2,67 0.448,3.588 -2.131,10.561 -2,11 0.912,3.054 3.071,10.83 1,17 -10.505,31.296 -18.499,68.831 -36,94 -6.681,9.609 -21.056,12.692 -28,22 -7.877,10.559 -16.876,21.228 -24,32 -3.168,4.79 -3.412,11.499 -8,12 0.417,4.491 1.552,5.775 4,8 -1.198,13.931 -12.208,24.356 -18,35 -9.5,17.456 -12.118,36.426 -14,58 19.507,-4.583 25.791,-15.438 36,-29 8.528,-11.329 21.572,-20.592 34,-28 2.7,-1.61 4.642,-0.688 8,-2 12.529,-4.893 25.801,-13.154 38,-19 3.713,-1.78 8.695,-0.646 12,-3 0.333,-1 0.667,-2 1,-3 5.426,-3.847 10.798,-6.093 16,-10 6.053,-4.547 10.324,-12.093 16,-17 2.955,-2.555 7.515,-3.06 10,-6 1.468,-1.736 1.449,-4.37 3,-6 1.227,-1.289 3.808,-1.674 5,-3 8.514,-9.467 16.76,-21.458 27,-29 12.666,-9.33 26.029,-16.774 39,-26 4.104,-2.919 7.871,-8.032 12,-11 3.263,-2.345 7.181,-3.264 10,-6 14.331,-13.909 28.437,-28.362 45,-40 4.333,-4.666 8.667,-9.334 13,-14 2.297,-1.708 5.927,-2.021 8,-4 1.23,-1.174 0.949,-3.585 2,-5 5.238,-7.054 13.807,-11.808 20,-18 4.324,-4.324 7.634,-9.724 12,-14 7.073,-6.927 16.632,-10.282 25,-16 1.333,-1.667 2.667,-3.333 4,-5 7.955,-5.504 16.113,-9.347 24,-15 1.903,-1.364 3.201,-4.557 5,-6 2.907,-2.332 6.628,-2.132 10,-4 7.446,-4.125 14.854,-11.285 22,-16 11.383,-7.511 22.708,-12.561 34,-20 36.263,-23.892 52.338,-70.76 93,-90 2.305,-5.736 1.889,-11.726 4,-19 0.62,-2.136 3.508,-6.106 4,-8 1.369,-5.266 -3.352,-7.482 -1,-12 l 1,0 c 2.507,-3.641 7.55,-3.766 10,-7 2.231,-2.945 2.566,-6.415 5,-9 L 0,0 Z m -667,767 c -1.817,-8.042 -4.625,-20.455 -4,-30 1.489,-22.739 4.36,-54.026 0,-74 -1.961,-8.984 2.067,-18.77 -1,-26 -2.635,-6.213 -9.239,-12.664 -12,-19 -2.314,-5.31 -1.042,-15.656 -3,-19 l -1,-1 c -6.75,13.284 -21.664,27.613 -32,38 -5.06,5.085 -8.869,14.269 -15,18 -10.218,6.219 -23.943,6.166 -32,10 -0.39,0.176 4.491,7.72 6,10 6.572,9.926 13.392,17.18 22,25 4.896,4.448 4.448,10.942 8,17 2.333,2 4.667,4 7,6 l 0,3 c 2.134,3.537 7.057,7.427 9,11 2.454,4.512 6.866,21.081 8,26 -0.333,1.667 -0.667,3.333 -1,5 1.713,6.528 7.66,15.476 10,22 1.691,4.716 -0.089,8.487 2,13 3.095,6.689 11.886,10.251 16,16 l 4,0 c 4.592,-7.35 11.909,-38.127 9,-51 m -36,56 3,0 0,-1 -1,-1 -2,0 0,2 z M -818,669 c -16.645,10.297 -54.484,15.914 -76,6 -9.896,-4.56 -17.523,-14.842 -26,-21 -8.624,-6.266 -19.864,-11.404 -26,-20 l -2,0 c 4.665,7.014 12.184,12.968 18,19 4.787,4.964 7.66,11.599 12,17 7.617,9.479 16.315,18.291 24,28 6.117,7.729 15.92,14.325 21,23 4.035,6.89 8.157,20.867 8,28 -0.031,1.406 -1.556,1.6 -1,4 1.918,8.285 4.981,18.013 7,26 1.048,4.144 -1.582,9.408 -1,12 4.778,21.266 22.14,32.613 35,46 12.018,-0.324 15.737,-7.155 23,-12 -0.794,-7.4 0.379,-16.565 2,-24 -0.333,-8.999 -0.667,-18.001 -1,-27 l 0,-17 c -3.857,-16.892 -5.841,-35.031 -10,-50 0.333,-2 0.667,-4 1,-6 -2.803,-8.792 -7.656,-20.855 -8,-32 m -6,-20 c -2.007,-4.652 -5.135,-3.371 -9,-6 -5.724,-3.894 -14.32,-14.377 -17,-21 -4.451,-11 -1.217,-27.426 -6,-39 -4.662,-11.281 -13.561,-22.102 -20,-32 -10.924,-16.793 -17.713,-34.449 -28,-52 -1.667,-1.333 -3.333,-2.667 -5,-4 -5.253,-7.773 -8.743,-14.321 -14,-22 -3,-2.666 -6,-5.334 -9,-8 -6.11,-8.087 -12.442,-14.183 -18,-23 -1.716,-2.722 -5.376,-4.022 -8,-6 -7.438,-5.608 -13.65,-14.151 -20,-21 -1.19,-1.283 -3.907,-1.64 -5,-3 -2.309,-2.873 -1.969,-5.551 -4,-9 -1.667,-1.333 -3.333,-2.667 -5,-4 -4.812,-7.928 -8.455,-14.746 -14,-22 -1.883,-2.463 -5.717,-3.832 -8,-6 -3.305,-3.139 -5.341,-8.251 -9,-11 -9.936,-7.464 -19.688,-14.763 -29,-23 -11.418,-10.1 -23.265,-20.141 -35,-30 -5.83,-4.898 -13.258,-7.086 -19,-12 -9.319,-7.974 -18.852,-16.967 -29,-24 -7.586,-5.257 -16.89,-7.48 -25,-12 -14.353,-7.999 -28.066,-19.363 -42,-28 -7.012,-4.346 -13.969,-5.561 -22,-9 -5.033,-2.155 -11.087,-6.866 -16,-9 -4.028,-1.75 -7.362,-0.248 -11,-2 -22.938,-11.047 -51.185,-19.69 -76,-28 -10.214,-3.42 -37.917,-5.025 -45,-10 l -24,0 0,1 c 4.246,2.009 9.79,3.626 15,5 l 6,0 c 4.687,2.375 8.694,7.227 13,10 0.325,2.307 0.464,2.484 1,4 -2,2.666 -4,5.334 -6,8 -9.771,0.539 -20.187,6.331 -30,6 -6.354,-0.214 -19.307,0.305 -27,1 l -20,0 c -10.901,2.782 -25.738,9.427 -38,9 -8.444,-0.294 -17.342,-9.457 -27,-6 -25.76,9.22 -74.463,16.924 -89,36 -2.533,0.106 -3.705,0.123 -5,1 -3.569,0.021 -6.759,-0.221 -9,-1 -0.179,-18.372 10.335,-18.725 21,-26 6.128,-4.18 11.535,-12.085 18,-16 5.304,-3.212 10.791,-3.902 16,-7 4.902,-2.916 9.605,-8.508 15,-11 2.614,-1.207 3.052,1.084 5,0 5.242,-2.917 10.904,-7.35 19,-8 l 1,-1 c -2.177,-5.903 -7.582,-9.392 -11,-14 -5.037,-6.791 -8.501,-13.511 -13,-21 l -7,-7 c -18.497,-31.952 -35.937,-64.028 -50,-100 -4.769,-12.198 -9.404,-25.218 -15,-38 -1.675,-3.827 -7.862,-8.975 -5,-14 0.98,-1.817 2.211,-3.324 4,-4 4.569,-1.726 36.967,-3.771 44,-1 9.076,3.575 15.004,11.729 23,16 11.627,6.21 22.567,9.677 35,15 8.689,3.72 11.721,10.154 23,4 -2.549,-7.154 -10.094,-11.047 -15,-16 -1.896,-1.914 -2.347,-4.805 -4,-7 -5.472,-7.267 -14.626,-12.769 -20,-20 -4.101,-5.518 -6.615,-11.75 -11,-17 0.184,-14.189 8.494,-21.624 14,-31 20.388,0.516 23.18,12.805 35,21 22.137,15.348 35.721,39.413 65,47 25.235,6.539 40.591,-22.37 50,-36 4.385,-6.352 11.881,-15.718 5,-25 -4.997,-14.421 -29.506,-17.875 -45,-23 -11.187,-3.7 -25.636,-8.138 -37,-12 -3.666,-0.333 -7.334,-0.667 -11,-1 -0.813,-0.231 -5.72,-3.002 -6,-3 -13.909,0.08 -31.224,-1.628 -44,-5 -5,-0.333 -10,-0.667 -15,-1 -7.674,-2.121 -15.281,-6.89 -22,-9 -0.645,-1.726 -0.196,-0.979 -1,-2 0.427,-4.657 0.789,-4.4 4,-6 -1.685,-7.492 -27.106,-24.298 -33,-33 -5.956,-8.795 -6.088,-19.868 -10,-31 -5.175,-14.724 -13.496,-26.539 -20,-39 -2.816,-5.395 -3.517,-12.83 -7,-18 -2.648,-2.119 -13.569,-1.459 -18,-8 -5.644,-8.33 -1.579,-19.899 -7,-28 l -8,-8 c -3.803,-5.308 -6.425,-11.504 -11,-16 -4.251,-4.177 -10.389,-6.174 -14,-11 -1.639,-2.19 -2.105,-5.108 -4,-7 -18.723,-18.69 -45.423,-29.139 -67,-45 -5.984,-4.399 -9.595,-12.863 -15,-18 -9.829,-9.34 -21.693,-16.121 -33,-24 -2.333,-2.666 -4.667,-5.334 -7,-8 -7.646,-5.724 -14.345,-11.254 -22,-17 l -15,-15 c -12.929,-9.299 -26.241,-14.195 -41,-22 l -5,-5 c -3.818,-2.221 -6.974,-1.866 -11,-4 -14.388,-7.627 -30.311,-17.622 -46,-24 -6.551,-2.663 -12.023,-0.967 -20,-3 -13.554,-3.455 -26.627,-5.61 -37,-12 -5.38,-3.314 -7.554,-10.549 -11,-16 -1.954,-3.091 -6.409,-6.84 -8,-10 -6.407,-12.73 -10.724,-30.29 -15,-44 l 0,-8 c -3.47,-13.525 -3.783,-32.46 -9,-44 -20.757,-45.915 -60.876,-69.357 -103,-94 -3.958,-15.926 -5.494,-28.11 6,-39 -0.925,-8.383 -9.177,-14.82 -13,-21 -9.281,-15.004 -15.278,-30.299 -24,-46 -2.908,-5.236 -9.499,-10.541 -12,-16 -23.019,-50.242 -22.305,-141.956 -59,-179 -5.928,3.52 -1.016,14.655 -2,21 -3.02,19.477 5.673,46.101 1,71 -2.759,14.703 16.091,43.444 22,55 3.921,7.667 3.753,23.817 7,35 7.206,24.823 20.47,57.965 13,89 -8.794,36.536 -0.728,60.879 10,92 4.193,12.162 5.732,22.228 11,33 4.318,8.831 11.388,16.947 15,27 4.104,11.42 -0.113,31.079 2,42 3.234,16.72 12.412,34.724 22,46 5.59,6.573 11.641,12.157 18,18 1,1.667 2,3.333 3,5 15.396,10.377 35.904,26.056 43,44 3.531,8.928 5.586,18.727 8,28 1.961,7.536 0.47,13.457 3,20 6.291,16.265 16.57,31.352 24,46 3.937,7.761 4.625,14.913 9,22 7.182,11.633 17.247,22.886 25,34 3.104,4.45 3.957,9.406 7,14 4.439,6.703 12.388,12.47 17,19 1.118,1.583 0.607,3.785 2,5 21.781,18.996 46.01,37.533 76,48 19.89,6.942 44.899,-9.947 58,8 4.219,5.779 3.57,11.37 7,18 1.333,1 2.667,2 4,3 2.347,3.409 4.917,10.084 6,14 l 0,13 c 1.183,15.405 -4.724,40.328 0,58 8.5,31.802 21.661,56.437 38,80 14.799,21.341 40.207,32.689 65,41 22.787,7.639 57.684,9.056 65,31 5.412,7.658 -0.185,24.8 -5,29 -11.622,10.137 -28.246,14.909 -42,23 -3.362,1.978 -7.994,1.589 -11,4 -11.853,9.508 -21.229,24.58 -26,41 -8.097,27.865 23.499,60.683 20,79 -1.928,10.095 1.009,22.123 -4,29 1.437,5.675 7.482,4.675 10,9 1.856,3.188 1.558,6.583 4,9 2,0.667 4,1.333 6,2 2.866,2.845 3.665,7.599 6,11 4.59,6.685 13.918,13.046 22,16 16.841,6.155 52.668,0.587 71,-3 3.333,0.333 6.667,0.667 10,1 10.062,-0.012 25.416,-0.081 35,-2 15.332,0.667 30.668,1.333 46,2 20.641,-3.916 66.455,4.902 85,11 l 8,0 c 6.387,1.633 12.569,2.721 20,5 71.982,22.073 134.598,53.838 195,87 2,0.333 4,0.667 6,1 17.933,9.891 36.225,21.982 53,33 7.679,5.044 15.584,7.705 23,13 23.709,16.928 45.202,37.866 68,56 3.165,2.518 4.768,7.432 8,10 13.497,10.721 26.43,23.145 39,35 0.333,1 0.667,2 1,3 1.333,0.333 2.667,0.667 4,1 0.333,1 0.667,2 1,3 2.808,3.318 7.573,5.224 11,8 0.333,1 0.667,2 1,3 3.555,3.373 8.844,5.283 12,9 2.281,2.686 2.23,6.863 5,9 6.803,5.25 14.161,10.002 19,17 19.601,28.342 61.656,71.903 103,77 12.95,1.596 26.189,-5.639 42,-6 -0.217,-4.257 -0.851,-8.637 -3,-11 m -601,-454 0,4 c 6.14,-0.185 31.73,-4.289 36,-2 l 2,0 c -0.658,-4.768 -1.948,-4.073 -4,-7 -15.12,-0.154 -23.905,-0.625 -34,5 m -89,-3 c -20.949,2.619 -32.51,18.544 -49,23 l 0,3 c 12.199,-4.813 28.623,-7.732 41,-11 4.688,-1.238 7.85,0.102 11,-2 l 2,0 c -0.227,-2.319 -0.197,-2.821 -1,-4 -0.511,-4.999 -2.061,-5.785 -4,-9 m 62,-186 c -0.113,-10.646 -4.985,-11.72 -10,-17 -7.371,-7.76 -13.74,-14 -22,-21 -1.667,-2.333 -3.333,-4.667 -5,-7 -7.004,-4.692 -12.819,-7.793 -19,-13 -8.664,0.119 -11.266,2.54 -16,6 1.025,13.214 30.491,39.537 40,47 3.645,2.86 3.932,7.187 9,9 1.843,1.175 7.14,0.863 9,2 6.728,-0.839 9.652,-3.247 14,-6 m 568,483 c -4.671,-5.691 -12.655,-8.81 -17,-15 -28.123,-40.063 -44.318,-90.758 -70,-133 -0.367,-13.264 -8.867,-9.85 -13,-18 -0.667,-4 -1.333,-8 -2,-12 l -5,-5 c -0.333,-2 -0.667,-4 -1,-6 -3.21,-6.196 -9.871,-10.773 -14,-16 -1.469,-1.859 -0.628,-3.858 -2,-6 -2.126,-3.318 -15.013,-8.71 -19,-14 -9.864,-13.088 -20.636,-24.607 -31,-37 -3.826,-4.575 -5.216,-10.56 -9,-15 -3.556,-4.172 -10.036,-6.164 -14,-10 -3.797,-3.675 -5.362,-9.126 -9,-13 -1.463,-1.558 -4.236,-1.676 -6,-3 -7.376,-5.536 -12.425,-14.56 -19,-21 -5,-4.897 -10.968,-6.951 -17,-11 -7.759,-5.209 -14.542,-13.61 -22,-19 -3.834,-2.771 -8.723,-3.738 -12,-7 -1.818,-1.809 -2.159,-5.224 -4,-7 -1.333,-0.333 -2.667,-0.667 -4,-1 -2.764,-2.753 -1.88,-6.318 -4,-10 -1.324,-2.3 -5.305,-3.506 -7,-6 -2.166,1.255 -4.747,5.908 -6,8 -2.054,0.399 -1.927,0.248 -3,1 -22.904,0.22 -25.314,-12.924 -30,-31 -1.022,-3.944 -3.559,-10.967 -2,-17 0.412,-1.594 1.031,-5.256 2,-8 l 3,-3 c 1.36,-4.466 -3.105,-8.115 -4,-11 -3.045,-9.815 -1.399,-21.293 -5,-31 -1,-2.695 -4.804,-4.375 -6,-7 -6.403,-14.056 -7.478,-28.623 -15,-41 -6.66,-10.959 -15.859,-19.037 -23,-29 -7.228,-10.085 -12.721,-20.125 -20,-30 -3.958,-5.369 -11.32,-7.148 -17,-11 -6.999,-7.666 -14.001,-15.334 -21,-23 -13.946,0.095 -9.946,11.22 -15,20 -1.971,3.424 -4.507,2.045 -5,8 -1.245,-0.669 -2.068,-1.087 -3,-2 -3.807,0.746 -5.234,2.414 -7,5 -18.495,0.841 -33.539,-7.52 -43,-19 0.643,-12.011 13.455,-32.934 11,-37 -2.566,-5.601 -11.873,-4.745 -18,-7 -3.449,-1.27 -8.67,-4.93 -12,-6 -2.675,-0.859 -6.94,0.897 -8,1 -5.999,-0.667 -12.001,-1.333 -18,-2 -3.458,-1.187 -6.739,-4.645 -10,-6 -10.495,-4.363 -20.968,-2.982 -32,-7 -2.854,-1.04 -6.938,-4.112 -10,-5 -9.675,-2.807 -22.088,0.9 -30,0 -14.488,-1.648 -40.732,-22.106 -48,-32 l -2,0 c 2.463,7.178 2.734,15.315 5,23 0.333,6.333 0.667,12.667 1,19 4.409,13.482 25.806,33.864 38,40 0.87,0.83 10.747,-2.425 16,-1 19.956,5.412 51.7,2.664 66,12 0.918,1.916 0.4,0.734 0,3 2.542,1.37 3.103,3.797 5,5 6.133,3.89 15.386,1.558 23,4 11.397,3.655 26.137,8.026 37,12 13.826,5.057 30.166,7.374 37,19 5.77,9.816 7.33,32.716 2,45 -4.838,11.151 -19.633,23.487 -28,32 -5.041,5.129 -13.114,14.213 -17,20 -2.512,3.74 -3.482,8.408 -7,11 -6.402,4.717 -14.521,6.519 -21,11 -7.718,5.337 -10.87,14.626 -21,18 -11.683,3.891 -23.703,0.093 -33,-4 -10.44,-4.596 -19.388,-14.768 -29,-21 -13.713,-8.89 -27.799,-16.283 -41,-25 -2.585,-1.707 -6.679,-1.915 -9,-4 -1.33,-1.195 -1.507,-3.876 -3,-5 -1.995,-1.502 -4.016,-1.488 -6,-3 -0.333,-1 -0.667,-2 -1,-3 -5.674,-4.008 -26.97,-5.469 -33,-2 -5.638,0.146 -6.526,1.255 -10,3 3.07,18.35 14.002,36.49 21,52 18.601,41.226 38.077,77.545 62,113 6.666,6.999 13.334,14.001 20,21 18.088,-0.052 35.987,-5.174 52,-9 8.666,-0.333 17.334,-0.667 26,-1 5.371,-1.985 10.006,-3.749 15,-5 6.508,-1.63 12.201,1.814 18,1 1.522,-0.214 2.541,-2.706 6,-2 46.299,9.451 88.219,25.999 128,41 20.471,7.719 38.918,13.225 57,23 12.803,6.922 25.383,17.28 38,25 8.79,5.378 18.292,7.475 27,13 9.727,6.172 18.341,16.07 28,22 8.509,5.224 19.236,9.144 25,17 l 3,0 0,3 c 38.741,25.514 74.223,53.719 111,81 7.775,5.767 12.738,15.531 18,24 1.025,1.649 3.68,1.66 5,3 5.497,5.582 8.317,12.471 13,19 2.87,4.001 7.993,7.085 11,11 0.333,1.667 0.667,3.333 1,5 2.99,4.977 10.025,9.846 13,15 1.963,3.4 1.105,6.552 3,10 2.969,5.403 8.675,10.95 12,16 2.797,4.249 2.697,9.268 5,14 0.91,1.87 4.036,4.106 5,6 6.794,13.339 9.915,29.991 20,40 l 0,1 2,0 c -0.588,-10.39 -1.82,-12.613 1,-22 -9.844,-9.57 -10.232,-28.318 -19,-39 m -358,-542 c -4,-3.333 -8,-6.667 -12,-10 -7.017,-9.634 -9.427,-21.895 -16,-32 -5.694,-8.753 -14.729,-15.048 -20,-24 l -2,0 c 4.726,16.985 15.778,27.085 24,40 12.746,20.022 26.679,42.666 35,66 0.667,-0.333 1.333,-0.667 2,-1 0.835,-14.5 -4.011,-28.973 -11,-39 m -96,-89 c -6.793,-1.667 -13.496,-5.101 -20,-7 -8.296,-2.423 -17.547,-1.646 -24,-6 l -2,0 c 2.02,4.799 8.011,7.144 10,12 3.062,7.478 0.812,25.476 1,33 3.864,0.104 5.081,0.228 7,2 15.588,-5.661 13.801,-28.93 28,-33 l 0,-1 z m -135,-50 c -4.752,-6.864 -10.866,-16.62 -13,-25 -4.175,-0.393 -10.053,-1.87 -13,-4 l -1,0 c 0.998,7.47 1.576,17.11 2,20 -0.051,4.069 0.076,8.333 1,11 6.39,2.277 12.641,4.464 19,6 3.604,0.871 7.583,-0.456 10,1 l 4,0 c -1.87,-4.426 -6.517,-5.414 -9,-9 m -578,-568 c 1.481,4.182 5.221,5.555 7,9 4.661,9.029 5.424,18.3 11,26 7.895,10.901 32.958,29.557 45,37 7.666,4.738 25.047,7.919 31,13 5.177,-0.16 6.021,-0.88 8,-4 l 5,0 c 2.979,3.484 12.129,14.656 16,16 1.284,0.879 2.468,0.926 5,1 l 0,-3 c -6.288,-3.276 -13.852,-8.204 -19,-13 -1.006,-0.938 -0.75,-3.246 -2,-4 l -4,0 c -3.009,-2.26 -4.969,-7.564 -8,-10 -7.997,-6.428 -16.683,-10.868 -25,-17 -6.95,-5.124 -13.694,-13.378 -21,-18 -15.62,-9.881 -36.907,-18.048 -47,-33 l -2,0 z m -55,-28 c 3.444,6.779 18.951,7.888 27,11 3.71,1.435 5.926,6.211 9,8 3.623,2.109 7.746,1.785 11,4 l 2,0 c -1.616,-4.393 -20.712,-25.339 -25,-27 -8,-5.504 -17.587,1.816 -24,4 m 594,503 c -2.851,-5.891 -9.481,-12.356 -13,-18 -1.333,-3.666 -2.667,-7.334 -4,-11 -5.127,-7.925 -11.998,-16.217 -17,-24 -3.993,-6.213 -4.689,-13.157 -9,-19 -16.035,-21.734 -31.874,-44.469 -48,-66 -10.064,-13.438 -25.985,-22.369 -38,-34 -5.65,-5.47 -9.69,-13.236 -16,-18 -7.47,-5.64 -20.53,-13.878 -26,-21 -3.716,-4.838 -6.548,-9.983 -11,-14 -1.738,-1.569 -4.097,-1.577 -6,-3 -3.331,-2.491 -4.903,-7.366 -8,-10 -19.089,-16.237 -34.835,-39.124 -47,-62 -0.667,-3 -1.333,-6 -2,-9 -3.591,-8.45 -9.206,-19.517 -13,-28 -2.675,-5.979 -2.24,-11.311 -5,-17 -24.209,-49.889 -39.871,-105.419 -60,-159 -10.878,-28.956 -25.481,-57.057 -38,-84 -5.403,-11.628 -7.691,-23.499 -13,-35 -6.631,-14.366 -17.439,-29.593 -24,-44 -1.571,-3.45 -2.358,-12.299 -4,-15 -18.479,-30.405 -34.635,-63.926 -53,-94 -11.538,-18.894 -19.776,-39.552 -31,-58 -4.288,-7.047 -5.886,-15.637 -11,-22 -4.689,-5.834 -11.497,-10.902 -16,-17 -7.657,-10.369 -13.351,-21.686 -22,-31 -4.767,-5.134 -11.121,-8.973 -16,-14 -9.729,-10.025 -17.234,-25.306 -30,-32 -9.372,-4.915 -21.814,-4.02 -33,-7 -10.016,-2.669 -21.592,-5.185 -32,-7 -10.73,-1.871 -24.622,8.432 -29,14 -3.265,4.153 -4.155,9.394 -7,14 -3.748,6.068 -6.862,13.671 -11,20 l -6,6 c -1.854,4.621 -0.312,9.024 -1,12 -2.135,9.235 -4.752,21.317 -7,31 -3.391,14.608 0.359,26.865 -2,41 -0.77,4.615 4.187,7.997 6,13 0.333,4 0.667,8 1,12 l 4,4 c 3.589,5.969 5.484,14.585 7,22 3.486,17.054 -5.157,29.622 -9,43 -3.745,13.036 1.553,30.927 4,42 l 0,14 c 4.439,12.763 6.29,29.365 10,44 0.333,4.333 0.667,8.667 1,13 2.774,9.418 5.639,15.927 8,24 l 0,7 c 5.734,14.149 15.012,27.335 22,40 5.545,10.049 9.079,19.522 15,29 5.02,8.035 12.801,15.481 17,24 14.857,-0.666 26.508,-24.649 33,-35 20.19,-0.021 20.761,9.658 29,21 1.408,1.939 4.375,2.314 6,4 4.142,4.299 6.453,10.123 10,15 3.399,4.674 9.003,7.876 13,12 2.104,2.171 2.567,6.198 5,8 1.333,0.333 2.667,0.667 4,1 1.316,0.969 0.934,2.712 2,4 1.115,1.346 9.483,7.957 11,9 11.785,8.103 24.37,12.963 36,21 2,2.333 4,4.667 6,7 4.303,3.126 10.211,4.359 14,8 14.18,13.628 29.785,24.218 46,36 6.192,4.499 11.756,11.521 18,16 12.464,8.941 33.153,8.196 48,15 9.725,4.457 10.633,12.128 17,19 0.104,6.391 -0.219,11.563 -3,15 -3.22,4.507 -14.552,8.461 -24,6 -13.813,-3.598 -32.025,-10.21 -43,-18 -8.498,-6.032 -18.655,-13.551 -26,-21 -1.57,-1.592 -1.622,-4.174 -3,-6 -3.284,-4.351 -9.533,-6.824 -13,-11 -0.995,-1.199 -0.634,-3.267 -2,-4 -3.422,-1.836 -5.463,0.625 -8,0 -10.56,-2.599 -22.507,-9.958 -31,-15 -2.222,-1.319 -5.864,-0.398 -8,-2 -0.86,-0.645 -0.99,-3.296 -2,-4 -2.598,-1.811 -5.188,-1.283 -8,-3 -1.667,-2 -3.333,-4 -5,-6 -11.561,-8.034 -22.87,-14.777 -34,-23 -1.52,-1.123 -1.661,-3.776 -3,-5 -1.816,-1.66 -5.244,-1.307 -7,-3 -6.766,-6.521 -10.369,-15.236 -16,-23 -2.759,-3.803 -7.247,-6.963 -10,-11 -4.668,-0.37 -10.031,0.039 -14,3 l -17,0 c 3.279,11.653 13.81,18.034 22,25 2.946,2.506 4.244,7.251 7,10 2.227,2.221 5.5,3.016 8,5 7.595,6.027 15.754,19.068 22,27 2,1.333 4,2.667 6,4 9.472,13.038 17.698,29.408 23,46 l 0,8 c 1.967,7.544 3.197,20.309 5,26 7.723,24.383 18.005,55.458 37,69 2.333,0.333 4.667,0.667 7,1 9.148,3.855 20.269,6.039 29,9 4,0.667 8,1.333 12,2 3.945,1.814 8.888,6.19 13,8 8.297,3.651 15.715,5.302 23,10 l 4,4 c 11.717,4.965 22.059,8.155 33,14 28.743,15.354 50.675,35.61 74,56 9.464,8.273 21.029,14.469 31,22 9.472,7.153 14.73,19.706 24,27 12.816,10.084 28.211,15.65 42,25 3.882,2.632 6.334,8.311 10,11 1.333,0.333 2.667,0.667 4,1 2.666,3 5.334,6 8,9 1.515,1.082 3.936,0.56 5,2 7.66,10.366 14.587,20.529 23,30 2.131,2.399 2.04,6.436 4,9 3.535,4.623 12.123,5.59 16,10 2.868,3.262 0.16,6.826 2,10 l 1,1 c 1.204,-3.037 1.288,-7.691 3,-11 0.944,-1.824 4.337,-4.583 5,-7 1.289,-4.697 -2.174,-8.206 -3,-11 -2.96,-10.009 -2.632,-23.523 1,-32 2.637,-6.155 8.552,-8.674 13,-13 33.108,0.048 9.599,47.324 13,70 1.472,9.816 6.298,18.542 7,28 8.557,4.348 15.883,15.511 22,18 9.409,3.828 22.576,-2.045 32,0 4.666,1.333 9.334,2.667 14,4 l 7,7 c 5.985,2.903 11.568,1.116 16,5 l 2,0 c -8.693,-20.612 -15.096,-44.535 -25,-65 m -228,561 -1,0 c 1.184,5.571 5.007,12.982 3,21 -2.076,8.294 -8.061,15.254 -10,23 -0.96,3.836 1.389,9.21 2,12 1.734,7.917 10e-4,13.492 3,20 3.459,7.505 19.449,21.462 31,14 9.017,-0.582 13.383,-6.951 19,-11 8.239,-5.939 20.97,-13.247 27,-21 1.986,-2.553 1.073,-6.12 3,-9 6.499,-9.711 14.122,-16.502 27,-20 9.943,-2.701 26.798,1.959 36,4 8.089,1.794 14.058,-0.31 20,1 13.015,2.868 25.248,2.533 39,4 6.911,0.737 12.787,-2.456 20,-1 11.955,2.412 29.742,3.658 41,5 2,-0.333 4,-0.667 6,-1 68.705,14.73 130.489,27.364 185,55 3.794,1.924 7.299,1.071 11,3 37.061,19.317 69.949,44.207 103,68 12.283,8.843 23.703,21.091 36,30 5.633,4.082 12.999,5.051 19,9 2.529,1.665 3.854,4.974 6,7 4.152,3.918 10.396,5.578 15,9 7.438,5.528 11.009,13.802 16,22 2.905,4.771 21.506,16.859 27,21 2,2.333 4,4.667 6,7 12.374,8.79 29.427,9.562 38,22 2.915,-0.031 5.451,-0.049 7,1 0.758,-1.075 0.628,-0.924 1,-3 -13.757,-11.502 -23.531,-27.175 -36,-40 -20.056,-20.629 -40.987,-39.209 -64,-57 -1.16,-0.897 -0.977,-3.015 -2,-4 -6.697,-6.448 -15.352,-10.507 -23,-16 -5.365,-3.853 -10.371,-10.604 -16,-14 -44.482,-26.836 -91.04,-53.688 -141,-75 -28.055,-11.968 -56.052,-18.308 -86,-29 -28.613,-10.215 -63.535,-21.487 -91,-30 -15.934,-4.939 -32.472,-4.203 -49,-8 l -12,0 c -14.318,-3.399 -30.01,-1.535 -46,-2 -22.726,-0.661 -54.275,0.709 -78,7 l -16,0 c -24.584,5.772 -41.533,-5.924 -56,-13 -8.021,-3.923 -15.222,-4.07 -20,-11 m 1162,960 c -1.462,-19.865 -33.409,-45.23 -44,-59 -3.666,0.333 -7.334,0.667 -11,1 -3.935,30.169 16.271,38.979 36,49 5.705,2.898 11.517,7.934 19,9 m 116,51 0,-9 c -1.111,-2.057 -6.451,-2.929 -8,-5 -7.241,-9.686 -14.423,-17.838 -19,-30 -22.344,-9.416 -29.934,0.396 -46,11 l 0,2 c 16.335,7.932 34.132,16.506 50,24 6.801,3.212 12.51,3.793 18,8 2.596,-0.2 3.396,-0.442 5,-1 M -876,864 c -0.855,5.155 10.489,29.441 13,34 4.496,8.164 12.661,15.825 17,24 3.686,6.944 4.748,12.638 8,20 2.364,5.351 7.606,10.876 10,16 4.69,10.039 3.665,21.761 8,32 6.069,14.333 26.258,41.426 38,50 19.16,13.99 38.011,23.875 52,43 6.051,8.273 15.026,11.12 16,25 3.256,0.895 4.817,3.091 7,4 6.014,2.503 11.312,-0.37 18,2 2,1.667 4,3.333 6,5 0.227,2.319 0.197,2.821 1,4 -1.199,20.375 -22.444,21.856 -34,32 -2.856,2.507 -2.748,7.812 -5,11 -1.163,1.646 -3.676,2.289 -5,4 -18.955,-0.66 -25.361,-15.191 -44,-14 -5.097,4.906 -10.806,7.014 -13,15 -2.272,8.269 2.509,16.013 4,21 4.196,14.035 4.416,26.537 9,40 13.246,38.905 57.312,63.303 87,87 2.528,2.018 3.731,5.677 6,8 7.845,8.03 17.523,15.74 24,25 1.927,2.755 1.302,4.062 4,6 -0.047,12.976 -10.536,30.885 -5,42 5.891,11.826 27.574,18.712 39,26 16.563,10.565 29.755,23.204 43,37 6.216,6.474 21.19,20.268 18,35 -2.883,13.313 -14.22,19.772 -21,29 -5.072,6.902 -9.342,17.721 -16,23 0.879,9.323 11.645,8.229 19,11 6.005,2.263 14.76,5.338 22,7 10.17,2.335 20.795,-3.562 31,0 4.5,1.571 11.808,4.768 17,4 7.918,-1.171 19.035,-3.32 27,-2 26.717,4.427 58.471,-4.134 82,-14 l 5,0 c 10.001,-3.181 22.476,-6.566 33,-11 6.21,-2.616 12.268,-8.309 18,-11 12.751,-5.985 23.651,-10.997 31,-22 2.494,-3.735 2.58,-8.21 5,-12 4.155,-6.505 11.321,-15.724 8,-27 -10.518,-35.717 -47.807,-49.635 -73,-71 -3.766,-3.193 -6.467,-8.48 -10,-12 -1.674,-1.668 -4.544,-2.114 -6,-4 -2.061,-2.671 -3.27,-6.132 -6,-8 -9.586,-6.56 -18.638,-12.473 -25,-22 -5.684,-8.511 -8.274,-17.671 -14,-26 -5.631,-8.191 -17.376,-12.567 -24,-20 -4.036,-4.529 -7.676,-10.957 -13,-14 -2.768,-1.582 -5.073,-0.661 -8,-2 -2.628,-1.203 -5.515,-4.731 -8,-6 -12.02,-6.138 -24.437,-10.364 -36,-16 -6.859,-3.343 -13.065,-2.794 -20,-6 -13.979,-6.462 -29.687,-14.473 -44,-20 -8.458,-3.266 -15.332,-3.971 -23,-8 -13.887,-7.298 -33.41,-15.41 -39,-31 -1.559,-4.349 -3.213,-11.8 -3,-16 0.071,-1.407 1.559,-3.286 1,-6 -1.387,-6.737 -5.2,-26.837 0,-33 1.161,-2.501 2.544,-2.875 4,-5 5.221,-0.441 9.592,-3.757 16,-2 14.115,3.87 18.454,13.542 26,24 5.687,7.881 35.642,35.007 45,38 9.64,3.084 22.21,-1.901 30,-4 17.733,-4.778 34.384,3.265 41,13 2.717,3.998 4.723,10.135 6,15 l 0,7 c 1.224,2.53 13.298,11.432 16,16 5.828,9.854 4.969,20.775 9,33 3.298,10.002 15.747,20.815 25,25 8.74,3.954 21.807,0.673 31,3 16.601,4.202 34.369,19.831 55,12 8.595,-3.262 19.955,-12.021 24,-20 1.986,-3.917 3.427,-13.237 4,-17 -0.333,-2 -0.667,-4 -1,-6 3.049,-12.956 5.731,-48.322 0,-63 -2.667,-3 -5.333,-6 -8,-9 l -6,0 c -0.148,16.672 -5.526,27.942 -12,38 -3.196,1.43 -9.259,4.534 -13,2 -4.802,-0.55 -4.353,-1.782 -8,-3 -5.013,-18.892 -0.682,-27.178 7,-41 1.725,-3.104 0.45,-3.959 3,-6 -1.756,-8.961 -9.128,-9.055 -16,-13 -8.545,-4.905 -19.631,-11.246 -28,-17 -3.236,-2.225 -4.647,-6.725 -8,-9 -0.663,-5.756 -3.59,-10.535 0,-15 0.743,-2.32 1.039,-2.234 2,-4 12.43,-0.859 22.543,0.838 33,3 9.149,1.891 20.121,-3.018 28,-4 0.399,-2.054 0.248,-1.927 1,-3 -1.329,-6.174 -7.532,-11.137 -10,-17 -3.21,-7.627 -2.702,-15.907 -6,-24 -3.783,-9.282 -18.345,-23.2 -27,-28 -7.534,-4.179 -15.85,-1.624 -26,-4 -9.907,-2.319 -17.139,-5.772 -24,-11 -5.666,-7.333 -11.334,-14.667 -17,-22 -3,-0.333 -6,-0.667 -9,-1 -4.124,-1.36 -10.582,-6.68 -13,-10 -7.396,-10.155 -12.493,-22.075 -23,-29 -13.133,-8.655 -51.971,-20.343 -57,-34 -6.128,0.569 -9.668,3.583 -14,5 -11.671,3.816 -37.586,1.636 -47,-3 -14.647,-7.213 -22.195,-21.211 -35,-30 -8.122,-5.575 -18.55,-6.668 -27,-12 -5.02,-3.167 -10.009,-10.017 -16,-12 -6.999,0.333 -14.001,0.667 -21,1 -16.136,-1.436 -26.075,5.529 -39,9 l -20,0 c -4.717,1.298 -12.541,4.236 -18,3 -14.697,-3.327 -43.978,-24.219 -52,-35 -8.938,-12.012 -16.977,-27.22 -30,-35 l -1,-1 c -1.951,4.172 -5.186,9.094 -6,14 m -1303,-1224 0,-13 c -4.359,-13.755 -3.158,-34.802 -5,-51 -0.268,-2.354 1.817,-4.529 1,-8 -0.678,-2.882 -2.018,-12.736 -2,-13 0.626,-9.418 2.289,-24.109 -1,-34 -3.458,-10.399 -7.926,-21.593 -12,-33 -2.99,-8.372 -2.262,-16.305 -6,-24 -8.523,-17.547 -21.736,-33.468 -30,-52 -10.132,-22.721 -16.799,-47.952 -29,-69 -11.121,-19.185 -55.802,-53.62 -80,-60 -3.333,0.333 -6.667,0.667 -10,1 -15.269,-0.666 -30.704,0.403 -46,4 -7.333,0.333 -14.667,0.667 -22,1 -9.129,2.724 -20.957,5.137 -30,9 -3.031,1.295 -6.151,4.68 -9,6 -15.398,7.137 -30.843,15.658 -47,22 -3.666,0.667 -7.334,1.333 -11,2 -4.76,2.378 -10.297,6.552 -15,9 -1.667,0.333 -3.333,0.667 -5,1 -10.499,8.353 -15.25,18.185 -20,32 0.333,3.666 0.667,7.334 1,11 -0.418,1.882 -2.041,7.588 -1,11 2.765,9.069 17.757,25.659 10,38 1.513,5.264 17.358,14.171 22,18 6.126,5.054 10.542,13.379 17,18 17.883,12.796 37.081,22.23 55,35 14.216,10.131 28.416,22.508 43,32 4.627,3.012 9.896,3.523 14,7 9.5,8.049 18.637,15.447 29,23 1.667,2 3.333,4 5,6 6.128,3.833 11.339,6.782 17,11 1.333,1.667 2.667,3.333 4,5 3.812,2.37 7.813,3.074 11,6 13.22,12.136 27.426,22.039 43,32 4.468,2.858 8.601,8.954 13,12 10.254,7.1 20.718,14.561 31,21 11.181,7.001 24.219,9.815 35,17 8.717,5.81 16.177,15.647 25,21 12.718,7.716 32.094,17.159 39,30 l 2,0 c -8.297,-26.565 -26.779,-54.135 -36,-84 M -979,750 c -2.783,-5.124 -2.307,-9.988 -5,-15 -2.473,-4.602 -8.102,-8.633 -11,-13 -3.19,-4.807 -4.663,-9.551 -8,-14 -10.701,-14.266 -36.949,-29.836 -52,-41 -35.901,-26.629 -63.132,-62.363 -100,-88 l -10,-10 c -8.322,-5.722 -18.798,-13.09 -29,-16 -3.279,-0.935 -10.854,1.437 -15,-1 -6.627,-2.176 -12.903,-14.769 -10,-23 -39.328,-22.525 -90.128,-35.127 -135,-52 -6.333,-0.667 -12.667,-1.333 -19,-2 -12.356,-4.589 -28.503,-5.246 -43,-10 -9.229,-3.026 -19.48,-0.672 -26,-6 l -3,0 14,14 c 3.333,1 6.667,2 10,3 3.535,2.303 6.947,7.213 9,11 l 0,3 c 2.243,2.432 21.467,7.692 26,10 10.076,5.13 26.937,15.119 40,20 14.924,5.576 39.083,4.955 51,14 9.116,6.919 13.345,40.461 6,51 1.841,10.031 10.151,20.107 15,28 8.877,14.449 15.79,28.11 27,40 3.027,3.21 7.452,8.555 11,11 l 3,0 c 1.543,1.397 1.29,4.655 3,6 11.504,9.045 19.821,18.766 28,31 5.244,7.843 4.236,19.91 9,28 12.291,20.874 26.663,42.902 34,68 4.452,15.228 1.97,30.926 6,47 2.895,11.549 6.112,23.735 10,36 l 0,11 c 3.186,10.817 13.193,18.683 17,30 3.092,9.192 -1.468,24.181 3,33 3.494,6.898 11.519,11.919 16,18 12.131,16.462 26.461,55.784 7,75 -5.058,4.994 -13.27,8.901 -20,12 0.024,2.727 0.039,4.583 1,6 2.021,3.889 6.653,4.45 10,7 5.97,4.548 28.945,21.958 31,28 6.693,9.561 -2.032,26.926 1,40 5.154,22.223 4.294,55.042 10,76 1.423,5.227 -0.463,9.29 2,13 1.692,2.549 5.662,3.059 8,5 31.799,0.1 37.735,-22.904 52,-40 5.37,-6.436 13.183,-10.931 20,-16 4.333,-4.333 8.667,-8.667 13,-13 2.808,-2.111 6.69,-3.458 9,-6 2.724,-2.997 3.125,-7.218 6,-10 -1.155,-17.151 -12.45,-28.73 -19,-41 -5.41,-10.134 -10.24,-23.319 -14,-34 -12.326,-35.018 -16.377,-79.547 -27,-116 -1.27,-4.357 1.639,-5.789 0,-11 -3.246,-10.32 -8.033,-22.838 -14,-31 -6.13,-8.385 -14.132,-14.382 -19,-25 -3.54,-7.721 -2.438,-15.196 -6,-23 -6.063,-13.283 -27.183,-56.898 -17,-72 2.906,-3.578 3.746,-0.892 7,-3 2,-2.333 4,-4.667 6,-7 7.407,-4.503 16.464,-5.381 24,-10 9.99,-6.124 19.04,-16.678 30,-21 4.982,-1.965 24.151,-0.23 27,2 l 5,0 c -1.151,-3.552 -3.625,-4.469 -5,-7 m -816,593 c 6.031,-25.619 -1.84,-59.731 -11,-82 -3.45,-8.388 -5.475,-18.753 -12,-24 -1.029,-0.807 -0.246,-0.369 -2,-1 -1.537,1.525 -4.091,2.939 -6,4 -3.311,18.591 3.984,38.692 8,54 2.785,10.617 1.715,19.621 5,30 4.724,14.924 9.284,33.313 14,47 8.337,-6.127 1.308,-16.566 4,-28 m -65,172 c 0.717,3.125 0.659,2.098 2,4 16.119,-0.595 31.191,-9.744 38,-20 3.791,-5.709 3.911,-13.719 8,-19 l 0,-3 c -0.333,0.333 -0.667,0.667 -1,1 -4.047,3.575 -5.759,10.63 -9,15 -7.487,10.095 -25.254,17.48 -38,22 m -7,-101 c 0.447,3.699 0.559,2.945 2,5 6.504,-1.86 25.424,-13.037 19,-23 -2.008,-5.563 -24.434,-18.578 -33,-17 -6.767,1.247 -12.658,4.995 -18,7 0.87,14.237 10.836,4.813 22,8 4.314,1.231 6.756,4.8 10,7 0.489,5.07 1.588,9.893 -2,13 m 828,180 c -2.901,4.811 -7.275,9.307 -9,15 l -2,0 c 0.811,-5.373 3.82,-11.684 7,-15 -1.254,-5.571 -5.977,-5.35 -9,-9 l -3,0 c -1.156,5.919 -5.993,8.391 -8,13 -5.372,12.335 -4.243,26.163 -9,39 -4.874,13.152 -9.06,24.777 -13,39 -3.975,14.348 6.244,40.457 0,51 -0.124,6.878 -0.193,13.872 2,18 5.831,-3.456 6.575,-19.111 9,-26 4.186,-11.89 4.097,-35.995 6,-46 2.505,-13.172 -3.953,-28.971 1,-42 1.978,-5.204 7.208,-8.552 10,-13 l 1,0 c -0.666,11.282 -5.901,20.159 -7,32 -1.688,18.193 1.505,42.172 -4,62 -1.966,7.079 -13.262,40.452 -12,46 6.957,30.585 46.606,48.014 39,84 -0.333,7.666 -0.667,15.334 -1,23 -1.632,5.057 -6.28,7.962 -9,12 -2.319,-0.227 -2.821,-0.197 -4,-1 -13.035,-1.415 -8.402,-13.969 -12,-25 -4.617,-14.155 -9.203,-31.807 -14,-46 -0.333,-6.666 -0.667,-13.334 -1,-20 -1.665,-5.823 -6.176,-12.723 -8,-19 -5.714,-19.661 -4.87,-39.225 -1,-59 1.926,-9.839 -3.259,-20.434 0,-31 4.536,-14.706 11.305,-29.74 16,-44 5.627,-17.091 3.314,-37.404 15,-48 -1.597,-7.052 -10.042,-7.241 -16,-10 -11.089,-5.134 -24.574,-12.175 -36,-17 -4.666,-1 -9.334,-2 -14,-3 -20.148,-7.455 -68.94,-25.552 -96,-14 -13.421,5.729 -19.716,20.824 -31,28 -3.796,2.414 -12.113,4.847 -16,6 -2.367,0.702 -5.13,-1.22 -6,-1 -10.498,2.656 -24.461,12.716 -34,17 -13.316,5.981 -26.888,8.375 -42,12 -6.376,1.529 -12.966,-2.201 -17,0 l -16,0 c 0.916,3.174 3.27,6.615 1,10 -1.032,2.288 -1.715,2.167 -3,4 -3.326,-0.01 -5.951,-0.287 -8,-1 -1.17,-5.155 -1.251,-5.84 -1,-12 -13.25,1.554 -31.687,0.92 -45,4 -11.521,2.665 -32.129,5.431 -46,1 -11.98,-3.827 -25.223,-9.377 -38,-13 -10.404,-2.95 -25.003,4.528 -36,2 -8.534,-1.962 -13.842,-5.779 -20,-9 -2.815,-1.473 -5.257,-0.424 -8,-2 -19.449,-11.172 -16.428,-42.846 -30,-60 -17.122,-21.642 -31.248,-50.451 -43,-77 -1.757,-3.969 -1.098,-7.211 -3,-11 -10.082,-20.084 -19.993,-38.791 -26,-63 -3.241,-13.061 -2.651,-39.454 0,-52 3.485,-16.489 -1.101,-33.716 -3,-46 0.333,-3 0.667,-6 1,-9 -2.655,-12.194 0.281,-28.34 -3,-41 -0.754,-2.908 -4.429,-20.275 -6,-22 -1.333,-0.333 -2.667,-0.667 -4,-1 -4.482,-3.377 -6.039,-8.913 -6,-17 1.667,-2 3.333,-4 5,-6 3.836,-0.935 5.853,-1.974 11,-2 0.667,-21.998 1.333,-44.002 2,-66 -3.25,-19.367 -8.545,-38.347 -16,-54 -4.696,-9.86 -4.984,-21.654 -12,-29 -5.969,-6.25 -17.468,-6.191 -25,-11 -5.428,-3.465 -8.475,-12.035 -14,-15 -6.478,-3.476 -12.934,-1.943 -21,-4 -2.05,-0.523 -5.828,-2.846 -9,-2 -8.26,2.204 -16.516,8.74 -24,12 -9.929,4.325 -20.033,6.401 -29,12 -11.934,7.451 -11.786,16.354 -29,11 -0.645,-1.726 -0.196,-0.979 -1,-2 -0.05,-24.398 37.136,-29.879 57,-36 5.596,-1.724 10.987,-6.296 16,-8 5.017,-1.706 8.98,0.283 13,-2 2.763,-1.57 3.73,-5.915 6,-8 4.588,-4.216 13.607,-7.051 19,-10 -0.336,-11.45 0.296,-13.74 5,-21 2.983,-0.673 11.923,-1.524 15,-3 1.667,-2 3.333,-4 5,-6 4.464,-3.229 10.932,-6.931 17,-8 11.332,1.333 22.668,2.667 34,4 27.037,-6.234 53.513,-18.945 68,-38 2.538,-3.338 6.78,-6.256 9,-10 3.18,-5.363 6.302,-33.891 3,-39 -2.385,-12.074 -41.15,-33.549 -60,-30 -3.883,0.731 -23.929,-1.507 -32,1 -1.528,0.475 -3.77,3.453 -5,4 -5.999,0.667 -12.001,1.333 -18,2 -10.027,2.132 -40.091,10.949 -54,5 -1.887,-0.807 -4.796,-4.247 -7,-5 -4.666,-0.667 -9.334,-1.333 -14,-2 -3.503,-1.144 -9.316,-4.303 -13,-5 -13.617,-2.576 -41.273,2.623 -27,-20 6.431,-0.098 10.247,-1.887 17,0 8.031,2.244 15.659,7.025 25,8 7.594,0.793 13.267,-5.491 19,-7 12.071,-3.178 22.755,3.692 31,6 10.329,2.892 23.261,1.571 32,3 3.273,0.535 8.417,3.201 11,4 10.561,3.267 19.372,-2.506 29,0 4.112,1.07 13.605,4.61 17,3 4.069,0.051 8.333,-0.076 11,-1 -8.786,-8.052 -24.313,-8.903 -37,-13 -18.487,-5.969 -42.483,-8.961 -60,-17 -3,-2.333 -6,-4.667 -9,-7 0.333,-3.333 0.667,-6.667 1,-10 1.708,-2.836 32.908,-7.147 41,-5 3.089,0.82 8.485,3.228 12,4 10.429,2.291 21.72,-1.941 28,2 10.179,-0.131 20.24,-10.898 28,-15 19.906,-10.523 49.01,-39.114 42,-69 -2.66,-11.339 -12.886,-22.908 -22,-31 -2.693,-2.391 -6.815,-2.07 -10,-4 -4.716,-2.858 -10.585,-10.193 -16,-12 -4.876,-1.627 -13.577,2.247 -17,3 -2.93,0.644 -6.161,-0.866 -9,0 -12.519,3.819 -29.071,11.464 -44,7 -11.259,-3.366 -12.82,-8.887 -20,-15 0.785,-5.127 2.829,-6.603 5,-10 23.275,-5.324 45.613,0.49 67,5 8.52,1.797 19.23,-3.547 29,-4 l 1,-1 c -1.688,-5.44 -8.196,-10.61 -3,-17 5.142,-6.437 25.633,-4.984 34,-9 18.936,-9.089 34.633,-29.489 39,-53 1.097,-5.909 -1.713,-26.738 -4,-33 -0.818,-2.239 -3.975,-5.598 -5,-8 -11.801,-27.652 -31.197,-41.393 -61,-51 -8.333,-0.667 -16.667,-1.333 -25,-2 -4.72,-1.268 -38.612,-5.849 -45,-3 -1.697,0.757 -3.825,4.276 -6,5 -14.145,4.705 -34.843,-1.612 -43,4 -3.645,1.343 -6.181,5.966 -8,9 -7.842,-0.77 -8.571,-5.414 -14,-8 -9.943,-6.113 -32.18,15.405 -37,20 -3.122,2.977 -7.713,4.219 -11,7 -1.667,2.333 -3.333,4.667 -5,7 -4.981,5.019 -11.008,8.995 -16,14 -19.455,19.505 -35.999,43.166 -58,60 -18.913,14.471 -37.101,30.636 -51,50 -5.959,8.302 -11.646,18.703 -17,27 -1.333,3.666 -2.667,7.334 -4,11 -2,2 -4,4 -6,6 -6.149,13.258 -9.046,27.799 -15,43 -0.667,5 -1.333,10 -2,15 -1.579,4.95 -5.427,11.413 -7,16 -5.593,16.316 -7.001,34.399 -12,50 -3.211,10.021 -4.349,20.056 -7,29 -0.333,4 -0.667,8 -1,12 -2.957,8.896 -7.253,22.458 -9,32 0.333,1.333 0.667,2.667 1,4 -1.567,8.05 -3.374,13.751 -5,21 0.333,2.667 0.667,5.333 1,8 -7.826,34.591 -14.197,87.581 -10,125 -0.667,5 -1.333,10 -2,15 -0.893,17.215 -1.002,32.079 -1,50 l 0,25 c -0.759,3.795 -1.493,21.807 0,29 1.959,9.441 -1.453,19.98 0,27 2.74,13.244 1.924,33.252 5,42 0.333,7.666 0.667,15.334 1,23 9.774,38.167 16.042,86.385 17,129 0.333,0.333 0.667,0.667 1,1 9.802,-0.624 10.906,-6.408 17,-10 3.644,-2.148 9.318,0.285 13,-1 5.619,-1.96 10.202,-8.915 15,-12 8.021,-5.157 31.369,-4.794 40,-2 8.489,2.748 11.989,9.118 18,14 -0.948,20.281 -39.163,30.118 -51,43 -0.333,0.333 -0.667,0.667 -1,1 13.65,6.257 14.812,24.326 21,38 1.588,3.508 6.618,9.262 5,13 1.492,6.257 15.918,10.643 22,6 12.735,-0.236 16.245,-8.802 24,-14 -0.312,-3.767 -0.887,-4.524 -2,-7 -3.042,-1.174 -7.905,-0.317 -12,-2 -7.037,-2.892 -10.397,-10.445 -15,-16 -0.499,-42.23 63.33,-41.99 90,-24 4.245,2.863 10.591,10.395 13,15 2.897,5.538 2.272,11.42 7,15 -1.026,11.536 -12.265,18.648 -20,24 -23.477,16.244 -62.431,20.359 -92,27 -11.772,2.644 -33.185,-6.01 -43,1 -2.681,2.108 -3.091,3.983 -3,9 12.91,12.317 21.58,25.76 43,30 1.748,0.346 5.764,-1.736 7,-2 5.088,-1.086 19.528,1.502 24,3 6.675,2.235 25.95,11.357 35,9 12.118,-3.156 38.48,-16.085 45,-25 3.765,-5.148 5.281,-10.571 9,-16 1.333,-0.667 2.667,-1.333 4,-2 4.098,-5.166 8.1,-13.116 10,-20 l 0,-10 c 9.325,-36.476 -9.821,-72.708 -20,-100 -5.267,-14.121 -7.643,-26.936 -14,-39 -3.229,-6.128 -1.9,-11.873 -4,-19 -6.707,-22.762 -7.059,-28.314 0,-50 2.234,-6.863 0.87,-12.386 7,-15 1.47,-0.782 4.075,-0.448 6,1 8.124,0.913 9.277,7.737 13,13 4.798,6.782 10.893,14.377 14,23 2.713,7.53 1.477,13.167 4,21 4.458,13.844 14.862,46.687 10,68 -1.708,7.485 -0.069,19.694 -1,26 -0.694,4.697 -3.661,12.767 -2,20 5.068,22.072 1.806,43.192 4,64 0.719,6.824 -3.785,15.012 -2,23 0.929,4.157 3.017,13.094 2,18 -0.211,1.017 -2.302,6.519 -1,9 2.673,5.093 5.888,5.757 6,15 -1.769,1.762 -3.229,4.285 -4,7 -2.232,0.635 -2.641,0.739 -4,2 -13.13,0.514 -18.182,-6.81 -18,-19 -5.23,2.02 -5.939,6.906 -9,11 -4.416,5.907 -15.068,11.9 -22,15 -3,0.333 -6,0.667 -9,1 -18.984,5.666 -53.871,9.464 -67,21 -1.977,3.004 -1.176,7.762 -3,11 -2.012,3.573 -6.282,8.374 -9,12 -2.685,3.582 -10.486,12.392 -14,15 -3.514,2.609 -7.456,3.434 -10,7 l -11,0 c -1.333,-1.333 -2.667,-2.667 -4,-4 -5.221,-1.312 -17.713,4.686 -25,3 -17.045,-3.943 -32.673,-12.095 -43,-23 l -2,0 c 0.149,12.35 4.784,23.396 8,33 3.917,11.697 3.513,25.875 6,36 0.333,15.665 0.667,31.335 1,47 4.117,17.418 3.827,41.317 9,60 0.667,6 1.333,12 2,18 20.376,58.673 43.907,111.226 76,158 2.333,1.667 4.667,3.333 7,5 6.425,7.62 12.312,14.817 19,22 3.971,4.265 6.768,13.364 12,16 l 5,0 c 3.949,1.594 11.873,6.883 15,10 7.167,7.144 9.945,17.641 16,26 5.592,7.719 15.872,11.638 24,17 9.792,6.46 19.041,16.988 31,21 3.333,0.333 6.667,0.667 10,1 10.627,3.5 29.758,11.189 40,5 8.723,-5.271 13.293,-29.758 29,-27 12.455,2.187 39.566,4.511 53,12 1,1.333 2,2.667 3,4 2,0.333 4,0.667 6,1 2.067,0.913 4.313,4.227 6,5 l 6,0 c 1.833,0.628 6.16,3.421 8,4 4.666,0.333 9.334,0.667 14,1 10.363,4.388 20.544,8.248 30,13 2.925,-1.155 38.626,7.064 45,9 13.665,-0.333 27.335,-0.667 41,-1 17.367,4.137 43.109,9.359 59,7 l 13,0 c 7.533,-2.74 17.237,-2.193 26,-5 3.823,-1.224 9.646,-4.222 14,-5 2,0.333 4,0.667 6,1 13.89,-3.147 24.833,-8.148 40,-12 10.234,-2.599 19.069,3.756 28,2 5.995,-1.179 15.985,-5.354 24,-3 10.162,2.985 18.275,9.063 26,14 3,1 6,2 9,3 13.661,9.17 28.076,37.894 35,55 8.566,21.163 23.418,41.17 29,65 1.965,8.39 -7.017,28.844 -9,35 -4.73,14.685 -2.512,31.38 -10,43 -5.454,8.464 -16.401,11.77 -23,19 -5.281,5.787 -3.532,17.295 -8,24 -5.467,8.204 -31.996,15.923 -43,19 -24.879,6.957 -65.441,2.064 -88,8 -9.067,2.386 -22.125,-1.225 -28,-4 -15.512,-7.328 -25.121,-21.971 -37,-33 -2.619,-2.432 -6.636,-3.341 -9,-6 -2.371,-2.667 -3.295,-6.745 -6,-9 -8.309,-6.928 -20.878,-12.376 -31,-17 -6.923,-3.162 -13.114,1.563 -23,0 -1.379,-0.218 -7.848,1.288 -11,2 -6.853,1.549 -13.605,-0.797 -19,0 -8.115,1.199 -17.049,4.567 -25,6 -17.546,3.162 -34.531,-7.716 -49,-11 l -1,1 c 1.392,13.23 16.923,20.419 23,30 2.204,3.475 1.63,8.881 4,12 l 0,9 c 1.444,3.09 21.149,18.421 25,20 l 5,0 c 19.576,7.604 46.01,6.672 68,12 9.109,2.207 17.658,-0.503 24,1 15.137,3.587 40.41,7.455 57,2 1.68,-0.552 5.309,-3.544 7,-4 3.254,-0.877 5.943,0.756 9,1 4.516,0.36 11.765,-1.92 15,-1 7.245,2.061 19.144,3.416 28,5 2,-0.333 4,-0.667 6,-1 4.299,1.015 15.283,5.345 25,3 18.54,-4.474 35.834,-6.491 53,-10 14.43,-2.949 35.156,4.258 46,0 1.166,-0.458 3.531,-3.561 5,-4 4.038,-1.207 7.471,2.622 10,2 7.429,-1.827 16.729,-8.703 25,-10 4.38,-0.687 21.322,-0.14 26,2 l 4,4 c 10.666,-0.667 21.334,-1.333 32,-2 18.904,-5.163 41.32,-12.423 58,-22 3,-1 6,-2 9,-3 13.2,-9.945 25.265,-21.092 39,-31 3.97,-2.864 7.328,-7.872 12,-10 13.062,-5.948 28.736,-5.22 43,-7 3.626,-0.453 11.378,2.004 17,0 7.945,-2.832 20.415,-8.007 30,-11 10.461,-3.267 19.53,-3.435 29,-8 5.374,-2.591 11.329,-8.342 16,-12 4.938,-3.867 10.404,-4.693 16,-8 1.333,-1.667 2.667,-3.333 4,-5 41.441,-27.961 78.647,-61.044 109,-100 2.783,-3.571 8.26,-5.433 11,-9 11.691,-15.218 23.463,-29.749 35,-45 1.977,-2.613 5.836,-3.637 8,-6 4.826,-5.27 5.241,-13.6 9,-20 1.569,-2.671 5.757,-6.393 7,-9 2.916,-6.115 1.083,-10.721 3,-18 7.996,-30.351 -5.257,-58.82 -14,-86 -3.859,-11.999 -3.542,-25.427 -10,-35 -14.812,-21.958 -46.603,-16.035 -68,-30 -14.295,-9.33 -22.923,-25.556 -37,-35 -10.23,-6.863 -23.919,-9.494 -34,-16 -5.533,-3.571 -10.439,-9.379 -16,-13 -8.422,-5.484 -18.128,-8.09 -26,-14 -7.552,-5.67 -6.886,-17.856 -13,-25 -5.361,-6.264 -13.048,-11.386 -18,-18 -4.914,-6.563 -8.233,-13.071 -13,-20 -6.757,-9.822 -17.051,-18.067 -24,-28 -15.299,-21.871 -25.506,-40.259 -45,-58 -2.342,-2.132 -3.634,-5.999 -6,-8 -14.322,-12.113 -29.958,-22.626 -44,-35 l -1,-1 z m 8,-112 c -0.484,-9.183 -0.06,-19.646 -2,-26 -2.024,-6.63 -0.301,-12.202 -3,-18 -5.199,-11.169 -17.116,-15.277 -27,-22 -4.283,-2.913 -5.936,-7.379 -12,-9 -7.546,-2.896 -21.349,8.017 -33,6 -9.989,-1.729 -21.546,-5.14 -29,-10 -5.236,-3.414 -13.683,-12.522 -23,-11 -8.035,1.313 -15.837,6.798 -22,10 -8.883,4.615 -18.148,5.313 -27,10 -8.24,4.363 -14.203,13.037 -21,19 -9.623,8.443 -21.574,13.411 -32,21 -3,3.333 -6,6.667 -9,10 -5.563,4.049 -13.97,9.13 -22,10 -2.963,0.321 -10.972,-3.712 -13,-3 -3.088,1.084 -6.028,10.166 -8,13 -7.84,11.267 -18.756,20.739 -26,33 2.331,0.488 1.478,0.142 5,0 l 0,2 c -2.174,1.277 -3.038,2.246 -6,3 -2.232,2.247 -2.982,-3.281 -7,-2 -18.884,6.018 -47.674,12.576 -66,5 -0.333,-1.667 -0.667,-3.333 -1,-5 -31.241,-0.733 -63.116,-15.905 -82,-30 -5.937,-4.431 -10.762,-11.649 -17,-16 -3.281,-2.288 -7.776,-2.504 -11,-5 -3.38,-2.616 -7.09,-8.322 -11,-10 -4.75,-2.039 -8.967,-1.341 -13,-4 -3.596,-2.371 -3.513,-6.333 -6,-10 -1.619,-2.388 -5.939,-3.897 -8,-6 -7.644,-7.798 -15.049,-17.729 -21,-27 -2.915,-0.031 -5.451,-0.049 -7,1 -1.628,2.849 1.398,26.111 4,32 0.847,1.917 4.062,4.833 5,7 2.36,5.455 2.909,10.349 6,15 3.247,4.886 9.241,9.747 12,15 5.848,11.135 5.658,20.969 14,29 12.514,9.85 28.326,-4.08 45,1 9.442,2.877 9.181,6.111 15,11 0.333,2.667 0.667,5.333 1,8 -1.171,4.219 -5.099,8.729 -1,14 4.424,7.313 16.006,-0.073 23,1 7.132,1.094 30.636,5.214 41,2 16.77,-5.202 26.126,-11.452 45,-8 6.046,1.106 7.529,-4.153 12,-2 4.446,1.86 4.877,6.541 9,9 -1.409,12.891 -18.639,22.62 -30,26 -5,0.333 -10,0.667 -15,1 -1.685,0.736 -3.826,4.307 -6,5 -2.333,-0.333 -4.667,-0.667 -7,-1 -0.411,0.13 -3.145,2.751 -4,3 -11.874,3.46 -27.628,-0.604 -34,1 -4.521,1.138 -17.341,-0.566 -21,1 l -11,0 0,2 c 39.728,0.6 84.323,8.623 119,1 9.79,-2.152 16.442,0.479 26,-2 14.198,-3.683 26.363,-11.046 37,-18 4.326,-2.828 9.834,-2.967 14,-6 3.635,-2.646 4.399,-9.203 7,-13 4.253,-6.208 12.638,-12.982 20,-16 10.057,-4.123 24.653,0.878 34,-1 40.036,-8.043 105.311,15.14 137,32 12.052,6.412 28.116,6.754 36,17 l 2,0 c 11.04,-28.107 27.005,-56.926 25,-95 m -599,-482 c 0.72,10.411 11.975,9.931 18,15 l 6,0 c 1,-1 2,-2 3,-3 -6.094,-10.333 -12.78,-8.753 -22,-15 -2.307,0.325 -2.484,0.464 -4,1 -0.645,1.726 -0.196,0.979 -1,2 m -25,49 c 3.214,7.749 3.964,19.078 6,27 l 0,8 c 1.169,2.256 5.094,6.143 6,9 l 0,22 c 1.247,4.034 4.919,9.31 7,13 4.678,0.145 9.142,0.892 12,3 15.669,-3.514 35.624,-15.685 44,-29 5.336,-8.482 7.872,-17.344 13,-26 5.944,-10.033 13.469,-20.195 10,-37 -2.844,-13.777 7,-29.836 -1,-40 -8.151,-10.455 -24.746,-11.346 -38,-17 -22.633,-9.654 -47.405,-15.534 -74,-22 -9.733,-2.367 -43.959,-3.879 -49,0 -2.826,1.158 -1.88,0.127 -3,3 -0.333,0.333 -0.667,0.667 -1,1 l 1,0 c 3.237,6.94 12.023,2.465 20,5 5.36,1.703 13.069,6.109 18,8 13.665,-0.333 27.335,-0.667 41,-1 15.086,4.227 28.003,14.348 38,24 3.883,3.749 18.464,14.479 15,21 -0.357,6.392 -2.461,6.29 -5,10 -14.025,-0.229 -20.711,-4.43 -30,-8 -11.008,-4.231 -21.141,-6.446 -31,-12 -9.291,-5.233 -18.831,-13.706 -29,-18 -8.734,-3.688 -24.095,-2.972 -36,-5 -0.669,1.245 -1.087,2.068 -2,3 0.13,6.134 1.388,8.934 2,14 18.543,6.927 59.329,27.917 66,44 m -398,171 c -0.499,-12.155 -5.688,-50.017 -2,-56 l 0,-2 -2,0 c -5.433,21.801 -17.066,29.868 -23,51 -2.495,8.885 -0.267,43.645 3,54 1.073,3.4 3.936,12.749 2,21 -6.095,25.983 -11.937,44.172 -22,65 -3.992,8.262 -3.935,16.121 -8,24 -3.605,6.987 -11.107,11.545 -15,18 -3.585,5.943 -6.409,12.95 -11,18 -0.263,10.226 2.528,8.083 8,12 15.056,-0.471 26.345,-4.246 33,-13 1.578,-2.076 1.962,-4.498 4,-6 6.9,-5.086 14.21,-8.879 21,-14 10.027,-7.562 18.473,-21.233 31,-26 -1.792,-51.163 -16.895,-94.683 -19,-146 m -27,-158 c -0.786,-4.827 -2.99,-32.078 -2,-39 0.226,-1.578 2.278,-7.079 2,-9 -5.704,-39.384 0.316,-85.123 -12,-121 -1.257,-0.554 -3.02,-1.202 -4,-2 -13.679,-0.051 -13.593,12.929 -19,21 -6.862,10.243 -14.869,20.758 -19,34 -2.778,8.904 1.567,21.252 3,27 1.148,4.603 2.365,31.156 1,39 -3.167,18.193 6.714,46.102 11,63 2.954,11.645 0.083,25.647 0,38 -0.044,6.549 2.052,17.236 1,22 -3.922,17.768 -4.445,41.319 -9,61 l 0,14 c -1.792,7.61 -3.099,16.518 -5,23 l 0,5 c -4.15,9.628 -12.153,17.985 -16,27 -3.254,7.624 -2.973,14.586 -7,21 -7.448,11.861 -18.514,22.622 -25,35 -1.365,2.605 -5.489,16.605 -6,19 -1.772,8.302 4.213,17.811 1,24 -0.542,6.861 -5.323,11.383 -11,13 -14.774,10.128 -35.878,-10.766 -46,-16 -2.88,-1.49 -5.403,-0.861 -8,-2 -4.886,-2.144 -17.249,-3.726 -20,-2 -2.288,1.032 -2.167,1.715 -4,3 -0.808,61.955 55.738,54.145 87,83 7.179,-1.657 13.531,-3.794 20,-7 2.596,-1.287 4.69,-5.272 8,-6 4.938,-1.086 10.01,2.978 14,4 2.482,-6.821 -0.68,-10.506 2,-18 4.955,-13.855 18.647,-21.623 26,-33 7.449,-11.525 9.178,-24.572 15,-38 5.674,-13.085 11.991,-27.047 16,-42 3.844,-14.338 -0.697,-33.781 -4,-45 -5.854,-19.882 -13.107,-60.389 -6,-81 3.105,-9.005 7.946,-21.002 13,-29 3.158,-4.998 10.002,-10.398 12,-16 7.545,-21.155 -5.659,-49.474 -9,-70 m -161,208 c 6.522,-26.611 -14.733,-46.708 -2,-72 7.155,-14.212 26.296,-22.051 39,-31 11.206,-7.893 31.071,-33.802 37,-47 2.729,-6.074 1.044,-9.891 3,-17 1.632,-5.932 5.958,-35.378 3,-41 -0.508,-10.837 -8.007,-12.274 -12,-19 -3.002,-5.057 -2.782,-11.124 -6,-16 0.075,-5.279 -0.412,-8.05 -2,-11 -9.199,0.413 -20.141,17.651 -22,26 3.616,3.152 8.996,6.459 13,9 1.203,4.699 3.269,10.482 0,15 -1.178,11.353 -10.201,10.798 -15,18 -2.974,-1.496 -2.948,-3.832 -4,-7 -9.102,1.632 -8.942,10.416 -14,16 -1.783,1.969 -13.505,8.641 -16,10 -29.661,16.157 -57.498,25.66 -75,54 -3.558,5.76 -4.304,12.6 -7,19 -5.626,13.355 -7.83,32.886 -3,50 2.179,7.719 4.429,15.954 7,24 8.841,27.668 30.874,36.235 46,58 2.054,0.399 1.927,0.248 3,1 l 6,0 c 7.733,-11.771 17.135,-23.231 21,-39 m 65,227 c 2.668,7.246 8.578,14.533 11,21 5.781,15.438 9.327,31.933 12,47 1.406,7.927 0.342,20.671 -1,27 -2.307,10.881 0.721,20.409 -2,30 -7.155,25.22 -16.128,64.732 -4,92 8.198,18.432 20.411,35.556 33,50 4.752,5.452 15.424,10.837 20,17 11.228,15.121 13.75,38.222 24,54 6.134,9.442 17.161,19.184 26,26 1.387,1.069 2.957,0.686 4,2 7.605,9.588 12.566,21.136 19,32 2.915,-0.031 5.451,-0.049 7,1 4.167,-0.199 4.582,-0.698 7,-2 -2.764,-13.333 -9.637,-22.427 -16,-32 -4.584,-6.897 -4.774,-16.095 -9,-23 -7.496,-12.246 -17.627,-24.99 -24,-38 -3.49,-7.124 -2.926,-13.709 -6,-21 -2.505,-5.94 -7.518,-12.626 -10,-19 -6.193,-15.901 -1.037,-46.015 4,-60 3.135,-8.703 9.409,-16.374 12,-27 3.093,-12.684 -2.71,-25.604 -5,-34 -3.461,-12.689 -2.26,-24.305 -6,-37 -1.154,-3.918 -3.917,-8.626 -5,-13 -4.192,-16.94 -2.295,-44.9 1,-60 l 0,-17 c 2.469,-10.943 1.591,-28.281 3,-37 1.825,-11.294 -5.5,-22.886 -2,-33 1.545,-4.465 7.691,-9.853 11,-13 l 0,-7 c -8.562,3.119 -12.165,12.418 -19,17 -5.254,3.522 -14.004,7.312 -20,9 -17.622,4.96 -28.655,-8.681 -40,-10 -9.446,-1.098 -23.245,6.562 -33,7 1.346,6.938 6.094,12.82 7,21 0.906,8.179 -2.578,20.284 1,30 m 194,-106 c 1.299,-3.689 2.959,-4.216 7,-5 0.094,-3.111 0.288,-5.274 0,-6 l 0,-4 c -1.276,-2.312 -4.511,-0.669 -7,-2 -5.874,-3.14 -7.142,-11.706 -14,-14 -2.666,2.697 -6.84,4.898 -9,8 -2.02,2.9 -2.188,6.034 -5,8 -4.398,3.075 -8.779,3.859 -12,8 l -4,0 c -1.458,11.553 -5.076,23.338 -8,33 -1.807,5.969 -0.096,12.377 -3,17 l 0,3 1,0 c 5.265,-10.625 36.929,-38.735 50,-28 l 3,0 c -1.49,-6.526 -3.058,-13.228 1,-18 m 56,166 c 1.114,-7.478 -3.698,-9.912 -6,-16 -3.329,-8.803 -4.095,-24.83 -9,-32 -2.877,-4.206 -11.465,-6.237 -16,-9 -2.667,-2.667 -5.334,-5.333 -8,-8 -10.622,-7.429 -20.734,-13.373 -31,-21 -10.117,0.574 -16.47,25.935 -21,34 -4.823,-0.089 -7.661,-0.744 -11,-2 -13.86,39.353 8.366,61.844 38,73 9.999,1 20.001,2 30,3 3.539,0.648 3.385,0.685 5,3 1.136,-0.755 18,-13 18,-13 l 0,-4 c 1.988,-4.287 6.461,-6.136 11,-8 m -113,-105 c -1.406,2.411 -0.174,6.059 -1,9 l 1,0 c 0.333,0.333 0.667,0.667 1,1 5.774,-3.42 4.776,-2.554 13,-2 2.666,2.333 5.333,4.667 8,7 l 0,8 c 5.873,-2.36 18.181,-29.076 18,-39 -2,-2.333 -4,-4.667 -6,-7 -14.037,-1.126 -30.315,11.625 -34,23 m 692,-52 c -3.733,-8.104 -33.906,-18.424 -46,-9 -0.667,0.333 -1.333,0.667 -2,1 l 0,2 1,0 c 1.682,0.85 3.094,0.479 5,-1 20.103,-0.619 32.37,12.017 28,32 8.693,-2.052 11.659,-6.892 17,-12 0.079,-5.954 -0.398,-9.869 -3,-13 m 746,162 c -0.503,-15.755 -29.167,-8.175 -39,-15 -2.596,0.2 -3.396,0.442 -5,1 -2.983,12.17 -8.354,23.354 -12,34 -1.943,5.672 -4.342,13.216 -1,18 1.158,10.562 11.922,14.998 19,20 7.698,5.44 15.736,13.339 24,18 10.765,6.072 25.59,9.685 35,17 12.647,-0.505 13.885,-8.259 20,-15 -0.968,-19.938 -17.138,-23.374 -26,-35 -4.246,-5.57 -6.345,-11.791 -10,-18 -2.462,-4.182 -8.782,-18.827 -5,-25 m -85,-53 c -5.395,-4.048 -10.732,-9.856 -16,-14 l -3,0 c -6.508,-4.205 -13.979,-11.768 -21,-15 -6.298,-2.899 -10.673,-2.467 -17,-5 -2.174,-0.87 -4.248,-4.139 -6,-5 -9.497,-4.667 -23.777,-3.821 -35,-7 -11.615,-3.291 -23.303,-6.681 -35,-6 -2.333,1.667 -4.667,3.333 -7,5 1.075,9.91 23.087,17.124 32,22 11.209,6.132 24.305,15.424 37,20 3,0.333 6,0.667 9,1 11.547,5.186 27.391,10.541 39,15 15.131,5.812 41.463,10.384 53,19 l 2,-1 c -7.508,-12.048 -20.758,-20.563 -32,-29 M 111,15 c -2.016,1.128 -1.793,0.518 -4,0 1.288,1.837 1.988,1.69 3,4 -2.121,2.127 -2.186,4.37 -4,7 -2.822,4.091 -29.818,29.177 -34,31 -6.648,2.899 -15.511,1.599 -23,1 -2.308,-2.234 -6.1,-3.399 -8,-6 -3.459,-4.736 -5.252,-8.908 -9,-13 -10.602,2.144 -17.405,15.686 -26,21 -7.666,2.333 -15.334,4.667 -23,7 -5.142,2.396 -8.603,8.252 -13,11 -5.275,3.297 -8.981,5.422 -14,9 -12.427,8.86 -23.596,28.459 -33,41 -7.209,9.614 -27.711,27.231 -38,34 -11.514,7.575 -23.07,12.928 -35,20 -1.333,1.667 -2.667,3.333 -4,5 -1.988,1.407 -3.752,0.635 -6,2 -7.571,4.596 -14.772,12.863 -22,18 -17.35,12.332 -35.218,22.449 -52,35 l -36,36 c -12.143,9.135 -23.329,18.459 -35,28 -10.686,8.735 -18.89,21.763 -30,30 -17.224,12.77 -35.275,23.638 -53,36 -3.864,2.695 -6.285,8.163 -10,11 -18.238,13.928 -31.735,32.681 -50,47 -2.4,1.882 -3.462,6.346 -6,8 -16.377,10.674 -30.325,22.58 -46,34 -3,3.333 -6,6.667 -9,10 -10.607,6.586 -19.103,14.518 -29,21 -3.542,2.32 -7.744,2.485 -11,5 -5.626,4.346 -7.873,14.894 -13,20 -6.532,6.505 -21.713,15.642 -30,20 -4,1.333 -8,2.667 -12,4 -1,3 -2,6 -3,9 -2.719,4.214 -8.07,7.909 -11,12 -8.809,12.3 -20.054,38.042 -23,52 l 0,27 c -3.611,14.851 -7.099,30.724 -11,45 l 0,22 c -0.379,1.425 -2.68,4.941 -3,6 -1.819,6.022 1.842,25.73 3,31 2.669,12.142 0.484,55.201 -3,64 l -2,1 c -1.881,4.843 -0.231,9.391 -3,13 -16.692,21.756 -41.224,24.978 -69,10 -7.804,-4.208 -10.612,-14.373 -17,-20 -0.003,-3.062 -1.161,-8.549 -1,-10 0.986,-8.9 9.049,-11.435 6,-22 -5.822,-20.176 -18.395,-34.725 -26,-52 -3.453,-7.843 -2.929,-16.39 -6,-25 -0.313,-0.877 -2.71,-3.122 -3,-4 l 0,-8 c -1.633,-4.823 -6.476,-8.229 -9,-12 -6.105,-9.119 -10.054,-24.068 -23,-26 0.995,21.832 7.454,45.3 14,63 2.395,6.476 0.476,16.23 2,23 3.769,16.745 6.652,46.774 2,67 -2.842,12.356 2.105,30.6 -3,41 -3.364,6.853 -8.359,9.414 -14,14 -21.781,-0.116 -23.873,-20.246 -33,-33 -5.804,-8.11 -15.06,-14.017 -21,-22 l -2,0 c 0.268,4.334 0.12,8.391 3,12 l 0,2 c 0.805,1.908 1,-2 1,-2 2.654,0.934 2.603,0.994 4,3 1.03,2.681 -0.665,1.263 -1,4 4.156,6.195 6.769,16.576 12,22 2.115,2.193 5.352,-0.235 8,3 2.729,3.334 3.86,7.083 8,9 -1.484,2.472 -0.42,1.583 -4,2 l 0,1 c 1.667,1 3.333,2 5,3 l 1,1 0,-2 1,0 1,2 c 0.994,1.809 0.257,1.804 0,5 2.429,-1.319 0.705,0.468 2,-2 4.898,1.77 4.781,4.938 8,8 5.383,5.119 26.065,14.312 39,11 17.264,-4.421 31.988,-22.577 59,-16 15.802,3.847 35.218,4.086 52,8 l 15,0 c 39.638,10.042 81.606,19.782 118,34 8.236,3.218 11.538,9.343 19,14 l 0,2 c -2.376,-1.215 -3.543,-1.875 -5,-4 l -3,0 0,2 c 10.496,9.157 20.542,20.935 28,33 2.49,-1.472 1.172,0.245 2,-3 4.221,2.424 24.4,17.777 23,20 1.624,3.236 1.599,0.5 4,2 1.627,1.16 -0.212,1.275 -1,3 4.746,3.912 9.727,11.838 13,17 l 1,0 c -2.195,-4.578 -6.024,-13.021 -10,-16 2.412,-2.582 5.516,-4.478 10,-5 1.308,-0.708 5.047,-0.447 7,1 3.465,1.742 1.025,1.905 3,5 1.155,1.811 4.914,2.316 6,4 3.855,5.976 0.701,13.345 0,20 24.515,-0.055 37.527,11.116 49,24 1.967,2.209 2.647,5.232 5,7 6.583,4.948 14.508,7.926 21,13 4.649,3.634 16.586,19.655 20,25 2.752,4.309 9.659,15.993 11,20 3.17,9.476 -1.345,14.792 6,20 -0.299,6.951 -1.849,9.817 3,10 -0.228,8.431 -4.601,14.535 -7,21 2.038,7.634 1.712,13.47 1,21 2.913,2.97 4.622,7.538 8,10 9.307,6.783 15.726,11.17 20,23 2.755,7.624 0.396,15.705 2,25 1.574,9.126 -1.095,24.045 -4,34 -0.333,6.333 -0.667,12.667 -1,19 -3.081,12.469 -6.389,24.239 -13,33 -15.598,20.671 -53.373,19.743 -62,49 -2.065,4.864 16.668,23.082 21,27 20.113,18.196 42.465,30.962 58,54 4.182,6.201 11.922,18.362 8,32 -11.837,41.163 -46.981,56.712 -84,73 -12.75,5.61 -26.775,15.367 -40,20 -5.771,2.021 -10.702,0.825 -16,3 -9.755,4.004 -50.844,14.857 -66,11 -6,-1.667 -12,-3.333 -18,-5 -3.906,-2.398 -8.346,-7.209 -13,-9 -11.52,-4.433 -23.29,-3.057 -36,-8 -10.165,-3.953 -19.718,-12.562 -32,-14 -1.627,26.228 12.075,36.377 29,49 l 10,10 c 7.997,5.541 16.328,11.432 20,21 4.714,12.283 -8.776,41.543 -15,46 -5.058,3.622 -11.509,5.071 -20,5 l -7,-7 c -3.679,-7.908 -2.292,-17.304 -9,-22 -20.077,-14.055 -42.054,-24.206 -62,-38 -3.064,-2.119 -10.309,-8.205 -13,-11 -2.707,-2.811 -2.991,-7.467 -6,-10 0.509,-19.612 18.259,-45.195 12,-59 -19.665,-7.666 -39.335,-15.334 -59,-23 -14.782,-4.954 -31.63,-3.746 -46,-9 -22.902,-8.374 -43.634,-23.189 -64,-34 -6.517,-3.459 -14.033,-3.963 -20,-8 -2.149,-1.657 -3.106,-4.123 -5,-6 3.695,-31.657 37.274,-42.262 65,-26 7.767,4.556 14.486,11.775 22,16 7.226,4.063 13.487,5.102 21,9 13.476,6.991 26.09,15.957 39,24 10.581,6.592 19.199,19.252 28,28 5.785,5.75 14.098,10.52 19,17 2.861,3.782 6.099,9.482 10,12 9.984,6.445 29.324,1.393 39,8 10.45,-0.436 8.924,-9.454 13,-16 6.357,-10.209 31.408,-28.642 24,-47 -14.421,-35.736 -65.21,-61.915 -97,-82 -3.165,-16.928 13.654,-39.625 4,-51 -9.056,-10.67 -18.327,-21.952 -29,-31 -6.929,-5.874 -15.492,-8.792 -23,-14 -4.333,-4.333 -8.667,-8.667 -13,-13 -27.468,-15.95 -48.263,-35.614 -62,-65 -6.448,-13.792 -15.737,-57.932 -3,-72 -1.038,-1.752 -16.771,-16.484 -18,-17 -9.211,-3.863 -21.497,-1.558 -29,-7 l -2,0 0,-3 c 5.05,2.052 27.648,8.405 35,6 4.182,-1.367 8.9,-8.211 18,-5 5.019,1.771 9.792,12.95 16,10 21.512,-0.074 15.752,-20.453 21,-37 1.276,-4.025 5.278,-15.108 2,-20 -1.757,-8.322 -12.051,-11.654 -18,-16 -15.107,-11.036 -37.796,-20.061 -49,-35 -6.221,-8.296 -11.481,-19.222 -15,-30 -2.05,-6.277 -0.655,-13.204 -4,-18 -0.183,-13.69 -8.125,-13.665 -13,-22 -1,-3.333 -2,-6.667 -3,-10 -3.82,-6.211 -10.797,-11.109 -15,-17 -2.654,-3.719 -3.218,-8.327 -6,-12 -6.484,-8.562 -16.378,-15.269 -21,-26 -3.333,-11.999 -6.667,-24.001 -10,-36 -1.626,-6.744 0.008,-19.908 -3,-25 l 0,-7 c -2,-0.333 -4,-0.667 -6,-1 -7.107,-3.329 -16.496,-7.303 -23,-12 -12.778,-9.229 -13.388,-28.219 -29,-35 -11.666,-5.067 -49.245,-6.665 -59,1 -10.804,8.49 -21.203,21.751 -39,20 0.114,30.641 8.601,45.683 20,64 4.649,7.471 5.907,16.012 11,23 3.666,3.333 7.334,6.667 11,10 5.573,7.389 11.278,16.01 15,25 7.48,18.065 5.279,45.504 10,66 2.084,9.048 -0.682,16.274 2,25 3.446,11.211 5.082,27.049 10,38 9.049,20.149 20.564,40.304 32,59 15.656,-0.649 23.383,-11.059 36,-15 20.725,-6.473 35.083,13.005 40,24 6.661,2.316 15.812,2.108 21,6 l 2,0 0,2 c -7.999,-1.667 -16.001,-3.333 -24,-5 -8.677,15.563 -23.463,26.769 -42,32 -9.867,2.784 -20.696,0.208 -29,2 -10e-4,10.273 2.43,17.67 0,28 -1.494,6.35 -4.186,18.756 -2,27 2.169,8.181 8.753,20.428 6,31 -2.518,9.667 -9.9,15.549 -13,24 -3.017,8.224 2.595,14.16 1,24 -1.328,8.191 -3.314,25.511 -3,36 1.026,34.262 8.518,70.664 3,105 0.333,3.333 0.667,6.667 1,10 -2.26,10.718 0.231,25.315 -4,37 -10.073,27.815 -40.301,37.974 -56,60 -6.899,9.68 -13.977,37.756 -23,43 1.13,8.506 8.421,9.023 14,13 10.711,7.636 20.486,17.055 31,25 20.8,15.717 32.398,38.922 47,61 6.779,10.25 16.12,19.853 23,30 6.63,9.777 18.989,31.004 30,35 1.156,-1.459 2.018,-2.176 3,-4 11.028,2.324 10.276,18.213 17,25 15.035,15.176 36.811,28.445 57,38 9.167,4.338 19.932,5.658 30,8 12.412,2.887 24.251,-1.254 34,3 11.438,4.991 25.053,15.028 33,24 1.333,2.333 2.667,4.667 4,7 9.189,7.883 20.704,13.264 29,22 11.565,12.179 2.571,31.711 8,51 11.548,41.026 25.75,86.454 10,132 -4.116,11.903 -11.83,21.959 -19,31 -2.333,1.667 -4.667,3.333 -7,5 -9.228,14.394 -20.939,25.389 -34,36 -1.667,2.333 -3.333,4.667 -5,7 -4.454,3.391 -10.002,6.088 -14,10 -28.188,27.578 -57.601,52.473 -91,75 -16.816,11.342 -34.649,27.725 -54,36 -7.992,3.417 -15.981,3.133 -24,7 -9.29,4.48 -20.839,11.886 -31,15 -4,0.333 -8,0.667 -12,1 -12.064,3.624 -27.82,7.425 -39,13 -20.355,10.15 -37.751,25.759 -59,35 -13.181,5.732 -26.777,9.369 -41,13 -9.865,2.518 -24.322,1.467 -32,6 l -25,0 c -1.042,0.686 -1.135,3.938 -2,5 -1.405,1.725 -6.943,4.29 -9,5 -5.333,0.333 -10.667,0.667 -16,1 -3.71,0.899 -10.118,2.965 -13,4 -4.978,1.788 -13.272,-0.29 -16,0 -16.625,1.768 -30.438,0.138 -51,0 -5,-0.333 -10,-0.667 -15,-1 -14.892,3.225 -48.83,14.72 -69,10 -7.985,-1.869 -47.258,-5.747 -59,-3 -17.584,4.113 -36.44,7.03 -57,2 -7.721,-1.889 -22.373,-0.042 -31,-2 -10.195,-2.313 -21.957,0.677 -29,-1 -3.825,-0.911 -9.73,-3.719 -13,-5 -12.268,-4.808 -25.726,-3.639 -36,-10 -7.525,-4.659 -15.761,-10.841 -22,-17 -2.666,-3.333 -5.334,-6.667 -8,-10 -5.436,-2.854 -11.958,-1.623 -17,-4 -5.045,-2.379 -9.073,-8.444 -14,-11 -14.627,-7.588 -33.105,-8.5 -48,-16 -10.751,-5.414 -22.305,-12.51 -34,-17 -8.42,-3.233 -16.746,-3.513 -24,-8 -2.905,-1.797 -5.023,-5.137 -8,-7 -0.645,-1.726 -0.196,-0.979 -1,-2 -0.057,-11.988 6.401,-11.088 13,-16 19.672,1.041 29.967,11.859 45,18 12.302,5.025 25.267,5.684 33,15 2.727,-0.024 4.583,-0.039 6,-1 l 2,0 c -0.329,-3.772 -1.192,-6.644 -3,-9 0.707,-5.307 3.381,-10.461 8,-12 6.272,-4.35 14.779,-0.088 20,2 9.292,3.717 34.462,14.021 44,12 25.927,-5.494 73.079,-15.868 97,-6 3.227,1.331 7.036,5.216 10,7 6.214,3.74 12.704,4.596 18,9 1.333,2.333 2.667,4.667 4,7 8.359,8.643 17.284,16.686 27,24 l 10,10 c 1.667,0.333 3.333,0.667 5,1 2.983,1.583 8.121,5.082 12,6 4.175,0.988 12.574,-1.347 16,-1 50.658,5.134 86.13,-0.767 118,-20 2.284,-9.954 4.146,-19.978 12,-26 4.771,-3.658 11.606,-6.068 15,-11 6.938,-10.08 9.605,-31.406 12,-42 7.624,-33.729 -0.811,-48.476 -13,-72 -11.572,-22.333 -19.121,-45.108 -33,-65 -3.664,-5.251 -17.015,-10.292 -23,-14 -2.162,-1.339 -5.696,-5.087 -8,-6 -6.02,-2.385 -22.828,1.013 -28,2 -8.106,1.547 -16.169,-4.498 -26,-2 -10.111,2.569 -22.769,7.231 -33,10 -7.24,1.959 -14.979,-0.288 -20,1 -7.148,1.834 -17.895,5.068 -26,7 l -13,0 c -5.089,1.348 -16.625,4.989 -23,4 -8.06,-1.25 -15.817,-4.095 -23,-6 -10.116,-2.684 -21.263,-1.963 -30,-4 -11.208,-2.613 -23.643,2.764 -33,0 -15.2,-4.49 -31.748,-6.042 -48,-11 -9.805,-2.991 -20.605,-8.034 -30,-11 -12.772,-4.032 -25.169,-1.67 -36,-7 -3.056,-1.504 -8.074,-5.762 -11,-7 -6.039,-2.555 -32.747,-6.274 -39,-2 -16.101,1.511 -13.515,20.98 -20,32 -14.36,0.892 -20.799,-6.967 -32,-11 -13.646,-4.914 -29.89,-5.112 -43,-11 -9.095,-4.085 -20.068,-14.649 -29,-20 -6.873,-4.117 -14.152,-4.882 -21,-9 -2.86,-1.72 -5.807,-5.681 -9,-7 -4.945,-2.042 -9.105,-0.083 -15,-2 -4.791,-1.558 -11.372,-5.156 -16,-8 -5.304,-3.259 -9.936,-12.628 -12,-19 -1.306,-4.033 0.738,-6.719 0,-9 -1.114,-3.44 -5.202,-6.16 -7,-9 -6.124,-9.672 -9.941,-19.232 -16,-29 -15.293,-24.654 -36.853,-44.254 -54,-67 -3.811,-5.056 -5.022,-11.305 -8,-17 -11.155,-21.33 -21.16,-45.344 -28,-71 -0.333,-6.666 -0.667,-13.334 -1,-20 -6.797,-28.603 -0.064,-66.299 -6,-94 -0.333,-11.332 -0.667,-22.668 -1,-34 0.333,-2.333 0.667,-4.667 1,-7 -3.801,-18.33 -6.055,-36.891 -10,-52 -0.957,-3.665 -2.49,-14.148 -2,-17 0.041,-0.24 1.744,-2.193 1,-4 -1.122,-2.726 -6.503,-6.252 -8,-9 -5.875,-10.782 -4.601,-23.149 -8,-34 -2.102,-6.711 -6.3,-19.875 -3,-28 1.435,-3.534 5.429,-9.246 7,-13 3.065,-7.325 3.209,-14.363 7,-21 l 5,-5 c -0.333,-2 -0.667,-4 -1,-6 0.54,-2.767 3.386,-9.238 4,-12 -0.333,-1.667 -0.667,-3.333 -1,-5 1.021,-5.047 3.417,-22.826 6,-27 l 0,-5 c -5.022,1.986 -7.983,24.446 -12,30 -7.38,10.203 -19.104,14.789 -24,28 -2.7,7.286 -0.093,33.349 2,40 0.958,3.043 4.614,10.455 4,15 -0.695,5.141 1.756,15.381 0,23 -6.842,29.683 -6.344,64.628 1,94 5.164,20.655 -2.251,49.547 7,61 -2.204,6.503 -6.336,4.121 -10,6 -14.1,10.79 -20.434,49.735 -10,70 5.674,11.021 19.535,14.982 26,25 8.18,12.675 14.196,29.419 20,44 l 0,6 c 3.702,9.05 9.998,18.653 14,27 4.323,9.015 2.739,18.024 6,29 3.444,11.592 6.667,22.377 6,37 -6.171,5.569 -11.022,11.076 -12,22 -3.008,0.137 -2.784,0.745 -4,0 -11.484,-1.194 -22.96,-20.005 -29,-28 -0.929,-1.229 -4.238,-1.888 -5,-3 l 0,-6 c -1.333,-0.333 -2.667,-0.667 -4,-1 -4.121,-3.063 -11.124,-8.766 -14,-13 -4.794,-7.059 -12.37,-25.482 -15,-34 -1.516,-4.91 -0.076,-8.271 -2,-13 -3.943,-9.693 -10.012,-20.398 -14,-30 -2.361,-5.685 -0.784,-10.515 -3,-17 -5.657,-16.556 -17.246,-25.551 -29,-36 -3.427,-3.047 -4.341,-5.943 -7,-10 -3.068,-4.682 -10.32,-7.686 -14,-12 -11.321,-13.271 -22.192,-27.29 -28,-46 l 0,-10 c -4.982,-21.617 11.309,-48.555 17,-64 2.439,-6.62 3.093,-16.587 5,-23 2.472,-8.311 0.048,-15.691 0,-21 0.333,-5.333 0.667,-10.667 1,-16 -4.107,-17.305 -11.773,-32.922 -21,-48 -3.716,-6.073 -10.175,-12.793 -13,-20 -1.652,-4.215 -3.041,-8.547 -4,-12 -2.45,-8.823 1.998,-19.395 -2,-26 -0.388,-5.207 -2.605,-8.757 -7,-10 -5.531,-2.498 -16.051,4.082 -23,5 -3.046,5.922 -8.262,10.688 -11,17 -3.695,8.519 -4.656,19.039 -10,26 -1.486,1.936 -3.917,1.551 -6,3 -3.148,2.189 -5.056,6.706 -8,9 -3.62,2.822 -7.278,4.258 -11,7 -7.545,5.56 -12.744,15.16 -23,18 -19.061,5.278 -36.312,-1.383 -56,0 -4.333,-0.333 -8.667,-0.667 -13,-1 -8.02,2.634 -29.32,24.088 -37,18 -4.768,-0.658 -4.073,-1.948 -7,-4 0.072,-9.523 5.634,-16.052 16,-14 2.405,0.476 7.065,3.465 11,2 7.96,-2.963 16.406,-10.247 22,-16 9.613,0.859 7.847,6.526 14,9 10.178,4.092 19.251,2.161 27,4 23.168,5.499 32.587,-9.447 43,-17 8.847,-6.417 15.397,-12.607 23,-20 1.667,-1 3.333,-2 5,-3 3.057,-4.651 2.86,-14.248 6,-21 2.871,-6.173 7.694,-13.058 11,-19 6.45,-2.681 18.302,-7.039 23,-7 -3.696,-10.072 -16.823,-10.191 -26,-15 -15.438,-8.09 -30.776,-18.7 -40,-33 -3.281,-5.087 -8.375,-21.229 -7,-29 0.831,-4.696 5.024,-12.763 5,-17 -0.042,-7.209 -1.109,-18.059 -3,-26 -0.333,-4.333 -0.667,-8.667 -1,-13 -5.088,-12.532 -18.205,-17.682 -25,-28 -3.145,-4.775 -2.944,-9.532 -5,-13 -2.856,-4.819 -7.986,-10.453 -10,-16 -2.533,-6.976 -4.143,-14.22 -6,-20 -0.667,-6 -1.333,-12 -2,-18 -3.155,-7.747 -2.851,-14.459 -3,-25 -0.019,-1.345 -1.655,-3.331 -1,-6 2.817,-11.485 10.242,-31.247 18,-44 1.667,-1.333 3.333,-2.667 5,-4 0.333,-2 0.667,-4 1,-6 1.261,-2.315 20.124,-19.918 23,-22 19.375,-14.023 43.735,-22.992 58,-42 20.212,-26.932 32.471,-66.787 66,-80 9.96,10.541 3.945,11.556 9,25 2.115,5.626 4.175,9.695 6,16 0.333,3.333 0.667,6.667 1,10 4.868,11.119 15.673,17.375 19,30 4.119,15.627 -8.675,32.484 -15,41 -2.257,3.038 -1.913,6.891 -4,10 -3.624,5.398 -10.766,10.445 -14,16 -1,3 -2,6 -3,9 -4.175,6.248 -11.628,10.995 -16,17 -1.833,2.518 -2.035,5.607 -4,8 -7.917,9.645 -20.821,15.565 -26,28 -4.927,11.831 1.639,22.996 -1,34 -6.312,26.324 -17.042,48.656 -30,68 -3.134,4.679 -2.489,9.634 -8,12 -0.137,6.674 -0.154,14.486 3,18 1.646,7.412 6.083,5.894 12,9 10.493,5.508 19.292,17.202 35,17 1.88,-2.063 4,-4.039 7,-5 0.355,-41.968 17.145,-46.32 33,-70 5.446,-8.133 6.321,-18.097 11,-27 2.286,-4.349 9.312,-10.475 12,-15 l 0,-4 c 3.565,-7.645 5.808,-18.495 8,-28 l 0,-12 c 4.215,-18.686 6.21,-36.22 8,-55 1.485,-15.583 -2.654,-32.884 -4,-45 -0.816,-7.343 2.243,-18.899 2,-24 -0.022,-0.461 -2.771,-4.243 -3,-5 -1.796,-5.932 -1.08,-10.073 -3,-16 -1.771,-5.468 -6.156,-13.909 -7,-20 -1.202,-8.675 -1.032,-22.376 -3,-33 -0.875,-4.725 1.856,-7.845 1,-12 -2.561,-12.431 -10.65,-35.256 -7,-49 3.395,-12.784 14.552,-22.159 20,-33 2.252,-4.482 1.521,-8.133 4,-12 1.611,-2.513 4.99,-5.692 6,-9 3.563,-11.672 -4.424,-21.442 -6,-30 -0.633,-3.436 1.488,-5.905 2,-8 4.659,-19.049 3.97,-24.943 23,-30 6.476,-1.721 10.816,2.256 16,3 1.879,3.219 5.029,4.24 7,7 3.344,4.683 6.083,13.699 8,19 3.805,10.524 -2.258,24.761 -4,31 -1.393,4.991 -5.682,37.024 -4,45 2.016,9.56 0.227,22.864 2,33 -0.333,3 -0.667,6 -1,9 2.46,12.148 3.439,26.516 1,38 0.333,3.666 0.667,7.334 1,11 -0.893,5.542 -2.698,19.463 -2,25 1.581,12.549 1.587,28.331 5,41 1.755,6.515 6.033,14.96 8,21 4.762,14.624 -1.187,34.377 7,45 l 0,1 1,0 c -0.144,-12.571 -1.85,-32.175 0,-44 l 0,-32 c 2.628,-11.335 3.013,-25.163 3,-39 0,-3.966 -1.331,-9.508 -1,-12 0.591,-4.454 2.377,-13.995 1,-20 -3.249,-14.172 -2.723,-31.002 -3,-45 l 0,-20 c -1.795,-7.744 -3.422,-22.641 -1,-33 8.093,-34.612 15.544,-65.538 25,-97 0.333,-3.666 0.667,-7.334 1,-11 3.648,-13.304 8.271,-30.487 12,-42 3.689,-11.388 2.07,-22.427 6,-34 4.401,-12.96 6.476,-29.961 12,-43 4.606,-10.873 11.476,-22.842 17,-33 2.278,-4.189 2.458,-9.042 5,-13 1.91,-2.973 6.313,-6.13 8,-9 5.833,-9.924 10.259,-20.07 18,-28 19.114,-19.581 42.342,-35.993 61,-56 12.588,-13.499 22.943,-28.994 36,-42 9.698,-9.66 22.195,-16.443 32,-26 3.673,-3.58 6.266,-8.476 10,-12 4.772,-4.503 20.818,-13.906 27,-17 -1.053,-9.532 -14.562,-29.258 -8,-38 0.333,-0.667 0.667,-1.333 1,-2 15.42,0.006 21.552,16.818 27,27 13.168,2.539 28.776,0.101 39,-2 3.28,-0.674 10.045,-3.606 16,-2 7.009,1.891 8.801,6.903 13,9 8.066,4.029 18.764,1.013 29,4 44.538,12.997 79.859,18.277 100,60 4.433,9.183 9.528,20.127 12,32 3.612,17.348 -13.209,59.259 -21,65 0.474,3.154 1.003,3.771 2,6 21.88,8.61 43.574,-3.911 63,8 -1.897,12.713 -18.433,7.403 -31,10 -18.697,3.864 -38.109,11.131 -58,16 -12.323,3.017 -25.751,-4.504 -37,2 l -1,1 c 25.171,9.549 59.496,40.884 47,78 -3.443,10.226 -8.081,21.182 -13,31 -3.49,6.966 -8.674,10.541 -9,21 20.644,-0.531 21.46,-1.75 36,9 -0.2,2.596 -0.442,3.396 -1,5 -3.39,0.855 -7.239,3.162 -10,4 -9.247,2.805 -17.982,-5.281 -24,-7 -11.451,-3.27 -23.501,1.712 -34,2 -5.151,0.141 -5.784,-2.202 -9,-3 -5.243,-1.301 -22.049,0.469 -29,3 -0.645,1.726 -0.196,0.979 -1,2 2.484,11.996 38.982,19.309 47,30 14.961,-0.177 21.377,-6.618 40,-6 20.281,0.673 45.416,3.043 64,-1 3,0.333 6,0.667 9,1 30.325,-7.412 47.121,-10.251 71,5 -0.106,2.533 -0.123,3.705 -1,5 -2.194,5.967 -7.278,6.492 -13,9 -5.135,2.251 -13.14,5.308 -20,6 -1.899,0.192 -5.631,-1.691 -7,-2 l -19,0 c -8.891,-1.975 -24.688,-2.819 -33,-1 -18.813,4.118 -36.376,-3.918 -42,13 -3.06,5.069 0.468,15.254 -1,22 -1.616,7.425 -2.467,16.875 -6,23 -18.475,32.029 -57.881,50.514 -92,67 l -1,1 c 6.288,4.191 17.075,1.569 25,4 12.885,3.953 27.668,3.971 42,8 11.105,3.122 25.838,7.407 37,11 11.1,3.573 21.454,3.188 30,9 3.795,2.581 6.006,7.484 9,11 2.901,3.407 8.367,4.241 12,7 1.694,1.286 2.168,3.656 4,5 2.855,23.856 -1.676,25.637 -9,43 -2.867,6.797 -2.935,13.08 -6,20 -4.578,10.334 -14.898,18.194 -21,27 -5.044,7.28 -9.19,17.595 -16,23 -4.223,3.351 -8.904,5.489 -13,9 -5.942,5.094 -8.452,14.398 -15,19 -7.345,5.162 -18.623,4.99 -26,10 -13.136,-0.076 -13.219,-4.163 -19,-11 -19.748,-23.358 6.615,-47.201 -2,-70 -3.202,-8.474 -11.43,-11.405 -16,-18 -4.743,-6.846 -7.947,-14.576 -14,-20 -5.313,-4.76 -12.088,-7.866 -17,-13 l -2,0 c 2.013,22.967 13.721,41.969 19,62 1.927,7.31 3.262,16.652 2,25 -0.245,1.62 -1.572,4.043 -1,7 1.058,5.474 0.4,19.816 0,25 0.333,12.666 0.667,25.334 1,38 4.461,0.457 4.967,1.49 8,3 0.554,1.256 1.202,3.02 2,4 0.132,10.064 -4.878,16.388 -14,17 6.782,31.328 5.72,72.421 11,100 l 0,23 c 3.233,15.288 0.457,34.927 6,50 3.392,9.224 10.105,18.933 15,27 6.865,11.313 10.536,23.805 16,36 1.982,4.423 6.547,8.117 9,12 0.333,1.667 0.667,3.333 1,5 3.196,5.944 8.641,13.201 12,19 0.333,2 0.667,4 1,6 3.973,9.953 16.286,33.412 23,41 4.151,4.692 17.75,7.683 24,11 9.606,5.097 20.7,16.052 28,24 5.231,-0.786 9.468,-5.047 17,-3 6.607,1.796 10.824,7.425 16,10 4.52,2.249 18.916,2.973 25,3 l 0,-1 c -13.723,-3.26 -27.444,-4.68 -34,-15 -0.333,-2.333 -0.667,-4.667 -1,-7 -1.129,-1.982 -5.022,-2.328 -6,-5 l 0,-9 c -0.788,-3.091 -2.773,-7.188 -4,-10 -7.407,-2.471 -17.931,-2.132 -23,-7 -3.68,-3.534 -5.421,-10.437 -8,-15 -4.763,-8.428 -13.958,-14.806 -18,-24 -2.095,-4.766 0.18,-10.784 -1,-14 l -5,-5 c -1.279,-2.283 -0.446,-4.174 -2,-6 -3.682,-4.325 -9.123,-4.706 -14,-8 -2,-2.333 -4,-4.667 -6,-7 -6.797,-4.611 -15.83,-5.788 -22,-11 -3.32,-2.805 -7.746,-8.284 -10,-12 -0.667,-2.333 -1.333,-4.667 -2,-7 l -6,0 c -4.007,-1.609 -8.891,-8.373 -11,-12 -2.676,-4.602 -1.653,-13.021 -5,-17 0.361,-4.162 0.476,-4.248 3,-6 8.846,-6.114 31.847,-0.752 35,9 3.652,0.195 12.387,-0.835 16,2 7.062,-0.664 8.168,-4.657 13,-7 6.062,-2.939 12.659,-2.596 17,-7 3.477,-3.527 0.867,-7.569 3,-13 1,-1 2,-2 3,-3 2.119,-6.006 2.502,-12.915 4,-18 0.333,-3.666 0.667,-7.334 1,-11 2.936,-7.096 9.126,-10.892 14,-16 2.848,0.11 4.276,0.401 6,1 2.714,16.837 -12.72,47.665 -18,64 -1.449,4.482 -6.172,10.075 -5,17 1.498,8.847 4.916,17.112 8,25 3.151,8.06 4.411,13.751 10,19 1.943,0.773 5.039,-0.923 7,-3 3.333,0.333 6.667,0.667 10,1 l 2,4 c 8.571,6.762 19.909,13.993 27,22 2.655,2.998 3.841,7.573 7,10 20.644,15.856 37.202,31.876 64,42 3.232,1.221 23.389,4.365 27,3 2.419,-0.914 3.632,-4.177 9,-3 15.064,3.303 46.042,1.364 60,-8 10.586,-7.102 20.996,-23.62 26,-36 2.303,-5.698 -0.213,-10.319 1,-15 1.596,-6.159 5.95,-12.068 10,-16 -0.114,-7.531 -2.433,-7.418 -6,-11 -20.229,3.939 -28.987,25.284 -49,29 0.667,1.667 1.333,3.333 2,5 -0.667,0.667 -1.333,1.333 -2,2 -3.168,-0.565 -2.909,-0.879 -5,-2 l 0,-3 c -15.661,1.762 -47.293,0.47 -60,-7 -1.651,-0.97 -2.469,-5.278 -4,-6 -3.088,-1.457 -6.805,2.084 -9,2 -1.387,-0.053 -12.073,-2.121 -15,-3 -9.851,-2.958 -20.162,-7.943 -30,-11 -7.333,-0.667 -14.667,-1.333 -22,-2 -7.227,-2.417 -13.083,-8.26 -19,-12 -0.442,-2.078 -0.95,-4.562 -2,-6 -0.42,-9.737 0.897,-14.916 8,-17 1.954,-1.402 7.046,-1.435 9,0 15.573,1.887 18.121,17.562 28,25 12.289,9.253 54.162,19.171 73,10 0.586,-2.719 1.544,-4.653 0,-7 -2.678,-7.718 -14.114,-7.698 -21,-11 -1.73,3.355 -3.634,4.497 -6,7 -7.188,-0.334 -6.28,-2.809 -10,-6 -0.265,-5.906 -0.397,-8.344 0,-14 6.037,-6.261 13.609,-15.526 22,-19 9.794,-4.054 16.685,0.51 28,-2 12.266,-2.721 34.818,-2.376 47,4 11.34,5.936 16.362,23.325 23,34 8.218,-0.562 12.561,-6.414 18,-10 1.845,-26.408 -17.631,-31.068 -34,-42 -5.374,-3.589 -8.731,-9.575 -14,-13 -0.254,-3.82 -1.161,-5.936 0,-8 2.513,-6.824 28.623,-12.298 41,-9 13.703,3.652 31.02,23.726 35,37 10.083,14.726 -8.705,26.693 -12,35 0.61,2.607 1.482,8.808 1,10 l 0,12 c 1.946,3.887 27.821,9.271 33,8 13.735,-3.371 25.261,-17.435 36,-24 8.311,-5.081 19.677,-8.747 29,-12 l 5,0 c 7.325,-3.117 16.13,-9.461 25,-11 13.644,-2.368 28.381,16.555 40,20 20.56,6.095 28.947,-4.526 46,-6 4.155,-9.208 5.958,-16.208 20,-16 15.861,15.175 24.398,24.109 32,48 4.008,12.595 2.33,26.463 1,40 -0.8,8.14 1.567,20.031 -1,30 -4.059,15.763 -10.18,32.555 -16,46 -3.806,8.793 -5.259,22.097 -12,28 1.349,6.896 6.377,5.8 10,10 l 2,0 c 4.367,-9.253 6.677,-23.18 12,-32 -0.669,-1.338 -0.558,-8.788 1,-12 1.783,-3.677 7.877,-5.835 10,-9 0.333,-1.667 0.667,-3.333 1,-5 14.148,-20.596 34.684,-38.857 44,-64 3.347,-9.034 1.803,-17.181 5,-27 2.351,-7.221 0.605,-17.572 3,-26 6.056,-21.312 2.393,-73.199 -1,-96 -1.338,-8.993 4.587,-19.518 2,-30 -1.11,-4.495 -0.292,-11.272 -2,-17 -1.397,-4.686 -5.544,-10.344 -7,-15 -4.81,-15.375 6.154,-25.626 10,-33 5.19,-9.949 8.156,-39.739 8,-55 -12.428,0.731 -19.544,12.781 -28,18 -28.231,17.424 -35.721,51.348 -73,60 -8.033,1.865 -28.615,-6.629 -32,-10 -3.447,-3.433 -7.496,-11.101 -9,-16 -0.333,-6 -0.667,-12 -1,-18 -1.657,-7.43 3.016,-18.856 5,-26 3.54,-12.749 3.796,-65.592 -3,-74 -4.177,-5.167 -11.802,-7.573 -18,-11 -1.333,-1.667 -2.667,-3.333 -4,-5 -2.507,-1.49 -4.502,-0.498 -7,-2 -1.93,-1.161 -3.289,-4.544 -5,-6 -15.647,-13.315 -27.629,-8.269 -36,-32 3.153,-3.418 2.583,-6.469 8,-8 12.137,-5.127 25.444,13.512 38,5 9.443,-0.584 9.686,-6.569 16,-10 0.506,-2.127 0.895,-3.616 2,-5 0.112,-32 -17.017,-27.236 -29,-44 -5.335,-7.464 -12.634,-13.368 -17,-20 -1.856,-2.819 -0.398,-5.43 -2,-9 -1.019,-2.271 -4.853,-4.939 -6,-7 -2.728,-4.899 -4.523,-13.917 -6,-19 -2.87,-9.876 6.018,-24.838 8,-31 3.599,-11.187 -1.225,-29.097 -3,-37 -2.117,-9.429 -2.026,-26.099 -5,-39 -2.034,-8.827 1.019,-17.099 -2,-25 -7.956,-20.819 -18.176,-40.114 -29,-58 -2.649,-4.378 -2.859,-10.014 -6,-14 -1.796,-2.279 -6.192,-2.571 -8,-5 -5.775,-7.758 -9.272,-16.311 -15,-24 -9.793,-13.146 -24.357,-23.62 -34,-37 -8.152,-11.312 -17.519,-23.638 -24,-36 -3.406,-6.496 -11.586,-26.08 -16,-30 -4.702,-4.176 -14.264,-5.316 -19,-10 -11.129,-11.006 -10.019,-32.615 -25,-43 -6.871,-4.763 -13.502,-6.677 -21,-11 -1,-1.333 -2,-2.667 -3,-4 -2,-0.333 -4,-0.667 -6,-1 -5.825,-3.229 -12.486,-9.361 -18,-13 -3.034,-2.002 -6.526,-1.224 -10,-3 -8.904,-4.551 -18.868,-11.604 -28,-16 -2.333,-0.333 -4.667,-0.667 -7,-1 -18.394,-8.214 -36.45,-18.859 -55,-27 -7.972,-3.499 -16.003,-5.436 -23,-10 -3.065,-1.999 -7.384,-8.666 -11,-11 -4.472,-2.886 -14.272,-3.884 -11,-11 3.143,-6.538 8.632,-0.587 14,-3 2,-2.333 4,-4.667 6,-7 11.91,-6.874 31.101,-2.397 41,4 6.517,4.212 11.775,11.712 18,16 10.761,7.413 30.07,11.91 43,16 l 7,0 c 24.722,6.585 52.717,9.216 75,12 6.843,0.855 17.07,0.713 25,4 20.339,8.432 39.756,17.914 60,27 9.848,4.42 19.596,13.666 29,19 2.998,-6.731 9.171,-6.461 13,-12 l 3,0 c -0.62,2.337 -1.163,3.131 -2,5 3.544,2.389 5.593,8.169 9,10 3.353,1.801 4.326,-0.611 7,1 l 1,1 -1,0 c -0.333,0.667 -0.667,1.333 -1,2 l -4,0 c -0.333,4 -0.667,8 -1,12 8.745,1.755 13.525,10.644 20,15 14.847,9.988 27.924,22.526 47,28 8.333,0.333 16.667,0.667 25,1 15.305,0.852 29.407,2.36 39,8 2.707,1.591 5.203,1.698 7,4 6.956,8.913 10.803,21.5 14,34 0.333,3.333 0.667,6.667 1,10 3.192,7.88 9.08,16.357 13,24 1.333,3.666 2.667,7.334 4,11 3.692,4.136 14.828,12.799 20,15 9.113,3.878 20.023,1.294 28,6 7.829,4.619 14.347,13.105 22,18 4.63,2.961 9.024,3.617 12,8 3.605,5.309 4.262,11.765 8,17 0.101,10.98 -5.056,19.18 -12,23 1.15,4.28 3.336,13.15 6,17 1.285,16.192 41.626,19.725 51,31 3.351,-0.188 6.007,-0.529 8,-2 3.081,-1.585 2.198,-3.406 4,-6 -1.96,-10.271 -11.426,-14.351 -17,-21 -8.56,-10.211 -12.936,-22.018 -20,-34 l -7,-7 c -22.331,-33.205 -41.369,-69.634 -62,-104 -1,-0.333 -2,-0.667 -3,-1 -1.249,-1.426 -0.86,-3.447 -2,-5 -11.332,-11.999 -22.668,-24.001 -34,-36 -7.826,-5.32 -16.608,-7.619 -24,-13 -9.088,-6.616 -11.357,-15.778 -18,-25 -2.75,-3.817 -7.444,-4.928 -11,-8 -10.732,-9.273 -20.302,-20.67 -31,-30 -1.333,-0.333 -2.667,-0.667 -4,-1 -3.704,-3.399 -14.278,-16.227 -18,-18 l -7,0 c -2.277,-0.793 -6.788,-3.399 -9,-5 -2.333,-2.666 -4.667,-5.334 -7,-8 0.333,-2 0.667,-4 1,-6 -1.135,-1.907 -20.683,-14.516 -24,-17 -5.574,-4.174 -10.442,-10.835 -16,-15 -18.489,-13.854 -38.021,-26.001 -56,-40 -5.031,-3.917 -11.295,-4.881 -17,-8 -8.968,-4.903 -19.379,-11.802 -29,-16 -3,-0.667 -6,-1.333 -9,-2 l -4,-4 c -8.17,-4.285 -17.171,-4.348 -26,-8 -6.543,-2.706 -14.829,-7.627 -22,-10 -11.707,-3.874 -18.885,-3.365 -31,-8 -10.879,-4.162 -25.199,-10.533 -37,-13 -20.092,-4.199 -47.564,-6.824 -70,-13 -11.139,-3.066 -16.547,2.129 -27,0 -11.446,-2.331 -46.231,-0.604 -65,3 -8.352,1.604 -17.376,-0.808 -27,2 -9.298,2.713 -19.051,8.238 -28,11 -9.911,3.058 -15.768,0.137 -25,4 -8.383,3.508 -16.882,12.93 -24,18 -7.016,4.998 -14.66,7.505 -22,12 -5.066,3.103 -13.774,9.872 -24,7 -16.53,-4.643 -26.984,-22.816 -30,-41 -0.633,-3.815 0.419,-12.235 -2,-18 -2.651,-6.318 -11.388,-19.988 -9,-30 2.709,-11.359 13.345,-21.139 21,-28 l 0,-2 c -3.707,0.617 -5.218,1.595 -7,4 -19.333,-2.843 -31.62,-19.1 -47,-27 -10.393,-5.338 -18.664,-1.567 -30,-5 -1.052,-0.319 -3.341,-2.718 -4,-3 -9.923,-4.244 -21.163,-3.854 -30,-9 -8.45,-4.921 -20.453,-20.648 -26,-29 -2.99,-4.502 -2.998,-10.424 -6,-15 -9.145,-13.937 -17.748,-28.472 -27,-43 -4.073,-6.396 -20.977,-16.284 -28,-21 -17.169,-11.529 -34.459,-24.63 -52,-36 -9.833,-6.374 -22.594,-10.466 -29,-20 -4.512,-6.715 -13.759,-30.565 -12,-42 1.534,-9.973 0.303,-17.74 1,-28 0.333,-2.333 0.667,-4.667 1,-7 -1.227,-5.441 -5.108,-10.097 -6,-13 0.333,-2.666 0.667,-5.334 1,-8 -1.909,-8.916 -3.639,-18.944 -7,-28 -7.219,-19.449 -19.915,-38.241 -29,-56 -3.331,-6.51 -3.617,-12.701 -7,-19 -2.955,-5.503 -8.646,-12.022 -11,-18 -2.765,-7.022 -2.659,-11.739 -5,-17 -5.73,-12.877 -15.677,-25.46 -22,-38 -0.333,-2.666 -0.667,-5.334 -1,-8 -1.333,-1.333 -2.667,-2.667 -4,-4 -2.488,-4.759 -2.172,-9.644 -5,-14 -2,-2 -4,-4 -6,-6 -0.333,-2 -0.667,-4 -1,-6 -3.405,-5.617 -19.202,-18.499 -25,-23 -13.185,-10.235 -24.022,-24.626 -38,-34 -17.379,-11.655 -37.595,-18.537 -54,-31 -8.898,-6.76 -16.935,-16.455 -26,-23 -17.265,-12.464 -34.995,-23.338 -52,-36 -19.076,-14.204 -37.483,-31.244 -58,-44 -32.441,-20.169 -64.621,-39.979 -97,-60 -11.11,-6.87 -23.914,-9.273 -35,-16 -5.374,-3.261 -11.079,-7.084 -16,-11 -3.205,-2.55 -5.137,-9.343 -9,-11 -2.333,0.333 -4.667,0.667 -7,1 -4.42,-1.079 -7.583,-4.882 -11,-7 -1.374,-5.97 -4.967,-13.61 -2,-21 1.038,-2.584 4.375,-4.568 5,-8 0.91,-4.999 -3.392,-8.89 -2,-15 1.463,-6.422 3.555,-14.736 5,-20 3.071,-11.184 0.468,-22.736 5,-32 8.113,-16.585 27.651,-28.565 44,-37 3.333,-1 6.667,-2 10,-3 18.674,-10.935 35.858,-26.315 56,-35 3,-0.333 6,-0.667 9,-1 5.308,-1.793 13.797,-4.429 20,-6 7.9,-2.001 19.248,0.495 26,-1 2.839,-0.629 6.767,1.198 8,1 0.329,-0.053 6.746,-2.009 7,-2 2.662,0.095 10.029,1.473 13,1 6.328,-1.008 18.03,-3.774 27,-1 32.522,10.057 55.736,28.747 77,50 17.185,17.176 26.51,45.452 37,69 8.363,18.772 22.458,35.567 32,53 9.973,18.221 18.057,47.752 24,66 0.57,1.751 3.053,27.744 3,28 -0.327,1.589 -1.663,5.855 -1,9 1.327,6.298 -1.298,18.822 0,26 2.338,12.93 2.313,26.222 5,38 1.178,5.164 -0.966,7.695 1,14 0.969,3.109 1.153,8.209 3,13 3.042,7.889 10.565,15.781 14,24 3.443,8.238 1.012,11.577 4,20 0.859,2.42 4.075,5.597 5,8 1,4.666 2,9.334 3,14 0.979,1.952 4.155,4.731 5,7 1.97,5.289 0.922,8.731 3,14 1.917,4.862 6.977,9.749 9,15 2.633,6.833 5.278,12.839 7,19 1.828,6.54 -2.387,11.098 0,16 2.984,6.127 9.176,12.646 12,19 18.093,40.706 33.084,82.26 53,121 3.651,7.103 3.069,13.688 6,22 4.532,12.852 9.673,22.987 14,36 2.72,8.181 1.125,21.161 5,28 1.055,8.175 8.982,11.586 13,17 8.38,11.292 19.249,16.091 31,24 6.636,4.466 12.362,10.996 19,16 7.624,5.748 30.892,32.727 34,42 l 0,8 c 2.666,2.333 5.333,4.667 8,7 4.599,6.317 10.409,13.5 14,20 2.231,4.038 5.953,14.585 9,17 2.767,2.193 8.298,1.831 11,5 6.509,7.637 10.556,17.361 18,24 1.333,0.333 2.667,0.667 4,1 2.333,3 4.667,6 7,9 7.024,5.256 16.572,10.865 24,15 10.977,6.111 25.108,5.826 31,17 3,-0.333 6,-0.667 9,-1 0.898,-2.518 0.692,-4.612 3,-6 2.7,-0.811 8.738,6.655 14,8 5.958,1.523 10.049,-1.382 14,1 4.279,2.084 13.02,13.164 15,18 l 4,0 c 0.465,-6.201 2.932,-11.029 4,-16 -0.333,-4 -0.667,-8 -1,-12 0.182,-1.428 1.476,-2.417 1,-5 -2.187,-11.879 -9.308,-21.419 -13,-31 -4.13,-10.717 -6.611,-21.569 -9,-33 -2.535,-12.13 4.524,-24.439 7,-32 2.266,-6.92 1.062,-10.458 4,-16 2.234,-4.215 7.077,-6.612 10,-10 1.71,-1.983 1.214,-5.181 3,-7 7.944,-8.09 19.608,-14.564 26,-24 4.298,-6.344 6.302,-18.567 11,-24 -1.98,-12.707 -21.776,-14.603 -34,-18 -19.437,-5.401 -47.914,-16.339 -59,-30 -12.491,-15.393 -25.024,-30.271 -38,-45 -2.595,-2.946 -2.891,-7.661 -5,-11 -2.704,-4.281 -7.559,-8.583 -10,-13 -4.385,-7.937 -6.237,-16.321 -11,-24 -5.802,-9.355 -13.505,-19.417 -18,-30 -3.087,-7.268 -8.202,-25.332 -8,-34 0.377,-16.189 2.95,-22.489 -6,-34 -4.486,-5.77 -12.049,-4.388 -20,-7 -10.59,-3.479 -22.648,-8.37 -33,-13 -22.194,-9.927 -50.147,-37.516 -66,-55 -0.333,-1.333 -0.667,-2.667 -1,-4 -2.644,-3.697 -7.328,-7.257 -10,-11 -6.524,-9.139 -10.647,-18.546 -17,-28 -16.715,-24.875 -34.771,-51.462 -47,-81 -7.299,-17.631 -5.611,-44.208 -14,-61 -3.895,-7.796 -28.213,-28.57 -36,-34 -2.497,-1.741 -6.79,-1.898 -9,-4 -11.128,-10.584 -19.817,-24.52 -28,-38 -5.34,-8.798 -12.813,-35.243 -11,-47 1.218,-7.9 4.732,-28.219 1,-37 -3.236,-7.613 -10.626,-16.122 -14,-24 1.692,-5.841 -4.92,-14.516 -7,-20 -5.093,-13.428 -8.421,-24.935 -13,-39 -3.607,-11.08 -6.849,-36.47 -5,-47 1.13,-6.433 3.628,-18.762 3,-25 -0.395,-3.917 1.394,-17.092 0,-23 -4.156,-17.613 -5.365,-29.797 -10,-45 -0.667,-4.666 -1.333,-9.334 -2,-14 -3.298,-8.622 -3.835,-21.013 -8,-30 -8.758,-18.9 -23.664,-39.354 -24,-60 -0.156,-9.614 4.462,-22.555 2,-33 -2.439,-10.349 -2.985,-46.165 -1,-54 1.693,-6.684 6.608,-10.114 8,-16 1.561,-6.602 -3.241,-16.01 -1,-24 2.6,-9.269 9.948,-13.944 12,-23 2.949,-13.014 -8.468,-24.744 -7,-36 0.609,-4.672 -0.611,-15.201 1,-21 3.82,-13.75 11.119,-29.362 15,-39 12.58,-31.24 -3.622,-62.958 28,-80 21.727,-11.71 56.293,9.963 77,15 13.567,3.3 29.006,0.332 39,7 2.667,3 5.333,6 8,9 7.403,7.104 14.299,13.094 21,21 3.801,4.484 10.473,7.211 14,12 2.043,2.775 2.652,6.519 5,9 2.747,2.903 7.925,4.495 10,8 4.486,7.579 6.59,14.416 11,22 l 4,4 c 3.896,8.547 5.214,17.208 10,25 7.206,11.73 15.583,24.306 24,35 2.23,2.834 2.102,6.894 4,10 6.123,10.023 11.099,20.076 17,31 3.619,6.7 10.746,12.939 14,20 3.667,7.955 7.472,14.317 11,21 2.132,4.039 1.483,8.361 4,12 4.697,6.789 11.43,15.532 15,23 6.911,14.458 10.38,28.802 18,43 6.705,12.493 16.915,26.752 23,40 2.238,4.873 1.505,8.396 4,13 1.027,1.896 4.015,4.638 5,7 1.615,3.872 0.74,8.536 3,12 13.037,19.976 24.381,45.295 34,68 11.345,26.78 18.604,53.165 30,80 3.768,8.873 9.017,19.325 13,28 0.333,2.333 0.667,4.667 1,7 1.359,2.516 4.872,5.796 6,9 3.594,10.207 4.013,17.314 8,27 4.272,10.377 12.591,21.453 17,32 0.333,3 0.667,6 1,9 1.025,2.055 4.862,4.817 6,7 6.229,11.955 9.395,22.811 16,34 1.667,1.333 3.333,2.667 5,4 2.74,4.566 3.113,8.791 6,13 3,3 6,6 9,9 2.317,3.372 2.375,7.823 5,11 0.979,1.185 3.853,1.859 5,3 3.322,3.305 5.647,7.741 9,11 1.728,1.679 4.587,2.013 6,4 11.573,16.272 26.143,31.981 42,44 5.774,4.377 9.457,12.31 15,17 14.024,11.866 28.297,23.819 41,37 5.287,5.487 7.759,13.467 13,19 2.508,2.648 6.943,3.904 9,7 4.003,6.025 5.706,12.314 10,18 1.667,1 3.333,2 5,3 3.142,4.231 3.599,9.211 7,13 1,0.333 2,0.667 3,1 l 0,4 c 2.562,4.738 7.643,9 11,13 2.581,3.076 2.716,7.637 5,11 8.419,12.397 19.912,25.323 27,39 10.715,20.676 13.893,44.899 26,64 6.626,10.453 17.613,17.196 27,25 9.247,7.688 17.101,16.531 27,24 1.904,1.436 3.188,5.821 5,7 l 7,0 c 1.897,0.752 7.698,2.553 10,4 1,1.333 2,2.667 3,4 8.145,4.09 20.799,1.881 30,5 8.872,3.007 22.805,6.967 31,11 4.015,1.976 8.208,0.928 12,3 7.252,3.963 15.187,11.012 23,14 7.333,1 14.667,2 22,3 6.723,2.336 12.353,7.573 18,11 6.493,-36.676 -10.897,-72.897 -22,-101 -4.997,-12.648 -6.012,-23.768 -11,-36 -27.769,-68.099 -53.215,-139.7 -93,-196 -3.227,-4.566 -4.001,-10.18 -7,-15 -18.605,-29.907 -31.037,-66.728 -50,-96 -1.689,-2.608 -6.085,-4.428 -8,-7 -6.628,-8.902 -13.646,-18.159 -20,-27 -6.401,-8.905 -10.122,-18.577 -16,-28 -9.817,-15.738 -20.849,-31.317 -32,-46 -3,-2.333 -6,-4.667 -9,-7 -13.026,-16.865 -29.81,-30.547 -42,-48 -13.058,-18.696 -23.401,-41.689 -34,-62 -3.027,-5.8 -3.659,-11.439 -7,-17 -8.444,-14.057 -15.62,-29.114 -24,-44 -5.481,-9.736 -14.689,-18.943 -20,-29 -8.33,-15.773 -11.869,-33.106 -19,-50 -4.62,-10.945 -13.078,-21.275 -19,-31 -8.063,-13.24 -10.485,-28.361 -18,-42 -6.398,-11.612 -15.761,-22.345 -23,-33 -12.091,-17.797 -19.868,-38.114 -32,-56 -3.085,-4.548 -8.787,-8.584 -12,-13 -18.509,-25.445 -35.44,-50.591 -54,-76 -8.041,-11.008 -20.88,-18.894 -32,-27 -18.588,-13.549 -34.418,-30.964 -53,-45 -12.794,-9.665 -23.428,-22.483 -35.334,-33.66 l -10e-4,0 c 0,0 -4.669,-6.335 0,-8.668 4.195,-2.097 7.19,-3.907 13.977,3.844 0.13,0.183 0.25,0.348 0.358,0.489 0.635,0.829 1.335,1.66 2.075,2.489 0,0.01 0.01,0.012 0.015,0.018 0.3,0.391 0.604,0.715 0.91,0.988 5.865,6.239 14.227,12.296 21,16.505 14.059,8.738 29.421,15.564 43,25 13.462,9.355 21.97,25.144 34,36 5.124,4.624 12.818,7.546 17,13 17.41,22.705 30.664,48.205 49,70 18.603,22.113 31.821,48.009 47,74 5.58,9.554 15.4,17.951 21,28 10.328,18.533 16.196,38.331 26,57 5.447,10.372 14.481,20.444 20,31 9.187,17.571 14.02,35.721 23,53 10.443,20.093 23.845,40.001 34,60 3.546,6.983 3.872,13.822 7,21 6.619,15.189 13.954,32.216 22,47 21.028,38.637 56.604,64.046 81,99 11.826,16.944 19.017,36.148 31,53 15.006,21.102 32.084,40.724 45,64 2.411,4.345 1.937,8.302 4,13 3.642,8.294 9.075,18.034 13,26 3.352,6.802 3.349,13.29 7,20 13.856,25.47 30.004,51.375 45,76 9.764,16.033 15.911,32.637 23,51 4.326,11.205 12.164,23.993 17,35 2.477,5.638 1.454,9.755 4,15 11.159,22.989 18.328,48.395 29,73 7.099,16.368 16.054,34.068 22,51 7.232,20.595 27.777,63.966 15,86 -0.599,0.673 2.677,9.572 4,13 3.833,9.937 6.124,20.843 10,32 16.196,46.617 13.504,108.708 40,145 3.297,4.516 9.537,7.48 13,12 1.84,2.401 3.391,10.451 5,12 5.27,5.074 12.758,6.809 19,11 4.724,3.172 9.285,8.812 14,12 8.442,5.708 17.461,9.415 25,16 2.551,2.228 2.732,5.393 5,8 2.587,2.974 10.166,6.765 13,10 1.818,2.075 1.962,5.188 4,7 3.79,3.37 18.191,12.222 20,15 0.333,2 0.667,4 1,6 2.677,4.993 9.291,7.929 13,12 2.988,3.279 4.33,7.465 7,11 2.408,3.188 7.558,4.708 10,8 9.925,13.38 17.914,27.421 28,41 3.97,5.345 16.831,12.882 19,17 0.667,4.333 1.333,8.667 2,13 3.185,6.822 11.456,11.775 15,18 0.333,3 0.667,6 1,9 l 5,5 c 1.446,2.656 0.483,5.577 2,8 2.839,4.534 8.55,9.279 11,14 4.606,8.875 7.115,17.432 12,26 l 6,6 c 5.04,8.622 6.726,18.397 12,27 3.546,5.785 8.572,12.151 12,18 1.333,3.666 2.667,7.334 4,11 0.759,1.221 7.27,11.472 8,12 4.266,3.086 9.522,4.255 13,8 0.333,1.333 0.667,2.667 1,4 2.504,3.476 7.633,6.422 10,10 l 0,3 6,6 c 1,3 2,6 3,9 1.667,1.333 3.333,2.667 5,4 4.216,7.298 5.868,17.293 8,26 1.374,5.613 -2.418,20.929 -2,22 0.872,2.234 5.205,6.427 6,8 2.166,4.287 -0.291,8.631 2,13 2.469,4.71 6.49,10.008 6,15 12.295,4.906 15.105,8.999 22,19 l 6,6 c 7.905,17.281 7.424,37.73 26,44 0.021,0.04 7.267,-2.761 10,-4 11.41,-5.172 23.366,-9.109 33,-16 3,-3.333 6,-6.667 9,-10 7.32,-5.493 12.41,-11.975 19,-18 l 4,-2 c 4.293,-5.474 7.711,-11.67 13,-16 2.178,-1.783 5.847,-1.137 8,-3 7.983,-6.906 13.656,-31.116 21,-41 4.537,-6.106 14.667,-12.977 22,-16 6.42,-2.647 11.542,-1.873 16,-6 5.222,-7.17 2.424,-16.721 5,-27 1.228,-4.899 4.568,-9.901 6,-14 1,-5.666 2,-11.334 3,-17 2.026,-4.092 6.46,-7.211 8,-12 1.004,-0.886 -3.226,-9.862 -4,-13 -2.706,-10.977 4.157,-23.75 11,-26 5.12,-3.802 10.323,-0.605 15,1 3.087,-6.446 7.477,-10.637 11,-16 8.302,-12.639 14.223,-24.953 22,-38 4.487,-7.527 12.254,-14.763 17,-22 13.222,-20.161 19.845,-51.22 28,-76 11.505,-34.958 -3.822,-93.64 13,-121 9.356,-15.218 43.997,-16.97 67,-17 l 25,0 c 19.593,-4.654 39.866,-8.865 52,-21 3.357,-3.357 4.687,-8.583 8,-12 9.966,-10.277 22.199,-18.558 29,-32 10.533,-20.819 10.562,-49.511 17,-73 l 0,-9 c 6.217,-22.302 14.513,-43.737 26,-61 18.998,-28.55 45.679,-56.739 75,-75 7.34,-4.571 16.454,-3.301 25,-7 12.531,-5.424 29.468,-9.256 39,-18 14.392,1.402 25.265,22.455 34,31 1.333,0.333 2.667,0.667 4,1 6.807,4.947 11.574,13.58 18,19 10.649,8.982 20.711,17.542 32,26 8.961,6.714 17.154,17.091 28,22 7.138,3.391 24.146,-9.209 36,2 3.314,1.436 10.572,12.358 11,17 7.623,1.266 11.495,6.993 19,9 15.616,4.177 35.417,-9.509 47,-2 l 2,0 0,3 3,0 c 0.835,12.85 2.969,21.651 9,29 0.216,19.307 1.736,31.128 -7,42" /></g></g></g></g></svg>